<?xml version="1.0" encoding="UTF-8"?>
<svg version="1.1" xmlns="http://www.w3.org/2000/svg" width="348" height="352">
<path d="M0 0 C114.84 0 229.68 0 348 0 C348 116.16 348 232.32 348 352 C233.16 352 118.32 352 0 352 C0 235.84 0 119.68 0 0 Z " fill="#FAFAFA" transform="translate(0,0)"/>
<path d="M0 0 C15.84 0 31.68 0 48 0 C48.495 5.94 48.495 5.94 49 12 C51.413125 10.824375 51.413125 10.824375 53.875 9.625 C62.60624073 5.37131862 71.52692918 4.7011345 81.10253906 4.7253418 C82.69496681 4.7176754 82.69496681 4.7176754 84.31956482 4.70985413 C87.80164351 4.69604416 91.28352231 4.69690871 94.765625 4.69921875 C97.20644198 4.69532658 99.64725829 4.69099084 102.08807373 4.68623352 C107.19529417 4.67878935 112.30244547 4.67904913 117.40966797 4.68432617 C123.92338064 4.69011253 130.4368082 4.67320081 136.95047379 4.6499815 C141.98996611 4.63517885 147.02939084 4.63438143 152.06890106 4.63749123 C154.46883457 4.63698111 156.86877217 4.63180208 159.26868439 4.62167931 C180.12126403 4.54452216 198.89140223 5.28583457 214.80859375 20.58984375 C223.33507427 29.96745245 226.35817793 40.91721102 226.30078125 53.4296875 C225.94465783 56.47292397 225.05032607 59.12938773 224 62 C240.89652454 55.8224022 254.38027231 49.18499228 265.4375 34.5 C272.67850917 25.06426017 282.85419149 17.56318107 294.7734375 15.2578125 C309.15787002 13.59224663 322.27945125 16.73792405 334.04296875 25.375 C340.71084254 30.9115978 343.99235269 34.98470537 348 43 C348 74.35 348 105.7 348 138 C233.16 138 118.32 138 0 138 C0 92.46 0 46.92 0 0 Z " fill="#020202" transform="translate(0,214)"/>
<path d="M0 0 C1.43769493 -0.01496269 1.43769493 -0.01496269 2.9044342 -0.03022766 C3.93417862 -0.03089233 4.96392303 -0.03155701 6.02487183 -0.03224182 C7.12667282 -0.04056534 8.22847382 -0.04888885 9.36366272 -0.0574646 C12.99669968 -0.08150677 16.62955678 -0.09033077 20.26266479 -0.09693909 C22.7998459 -0.10591137 25.33702649 -0.11503332 27.87420654 -0.1242981 C33.19186009 -0.14077608 38.5094468 -0.14851845 43.82711792 -0.15138245 C49.94328156 -0.15500953 56.05894091 -0.18485399 62.17495072 -0.22678703 C68.08933376 -0.26589324 74.00356813 -0.27697957 79.91808701 -0.2781086 C82.41934818 -0.28229524 84.9206104 -0.29466638 87.42178726 -0.31562614 C115.27442268 -0.53041062 115.27442268 -0.53041062 126.37985229 7.58665466 C133.17531202 14.89177386 135.22809115 21.1751034 135.17282104 31.09056091 C134.77797762 35.38119279 133.80400837 37.17798941 130.87985229 40.27415466 C127.84401186 41.79207488 124.68760522 41.4271532 121.35665894 41.43186951 C120.58090012 41.43695023 119.8051413 41.44203094 119.00587463 41.44726562 C117.31873268 41.45797774 115.63157644 41.46659461 113.94441414 41.47338486 C111.27596173 41.48515412 108.60767262 41.50460093 105.93928528 41.52650452 C98.35157683 41.58819314 90.76388515 41.64221411 83.17599487 41.67552185 C78.53756336 41.69643327 73.89942937 41.73170682 69.26116753 41.77627945 C67.4913425 41.79046697 65.72146483 41.79916807 63.95158577 41.80233383 C61.47821913 41.80722676 59.0056463 41.83034136 56.53244019 41.85765076 C55.79830902 41.85464462 55.06417786 41.85163849 54.30780029 41.84854126 C51.42225377 41.89600707 49.38070548 41.93275686 46.95625305 43.58534241 C45.15137682 46.41709172 44.99593653 48.96575392 44.87985229 52.27415466 C45.66869162 54.63179262 45.66869162 54.63179262 47.87985229 56.27415466 C50.97112253 56.88676205 54.03578223 56.80953159 57.177948 56.77586365 C58.60790855 56.78396812 58.60790855 56.78396812 60.0667572 56.79223633 C63.23002869 56.80477765 66.39239868 56.78818286 69.55563354 56.77024841 C71.75983223 56.77040342 73.96403119 56.7718926 76.16822815 56.7746582 C80.79951967 56.77604509 85.43050265 56.76344656 90.06173706 56.7407074 C95.96475442 56.71250489 101.86725189 56.71500642 107.77030659 56.72779751 C112.33031044 56.7347994 116.89019692 56.7269112 121.45018578 56.71454048 C123.62403092 56.71005669 125.79788881 56.709662 127.971735 56.71360588 C154.43532657 56.73911306 176.45621869 51.45473124 196.31735229 32.89134216 C199.48721067 29.65383438 202.21985668 26.18442903 204.98532104 22.60227966 C210.74387474 15.52578894 216.71120308 10.9955867 225.85250854 9.92649841 C237.15192041 9.40125758 246.01359115 13.02095648 254.45407104 20.43040466 C256.30337049 22.8218275 256.82542196 24.23966364 256.87985229 27.27415466 C254.40171182 31.34756002 251.08537194 34.75505158 247.87985229 38.27415466 C246.94399292 39.31636169 246.94399292 39.31636169 245.98922729 40.37962341 C239.93920056 46.75845595 232.8822609 51.99816349 225.87985229 57.27415466 C225.01650269 57.92867615 225.01650269 57.92867615 224.13571167 58.59642029 C196.90489043 79.1051188 165.38018814 90.90444293 131.87985229 96.27415466 C130.91836777 96.44312759 129.95688324 96.61210052 128.96626282 96.78619385 C123.69636207 97.52941544 118.40467139 97.44636229 113.09225464 97.46702576 C111.92217865 97.47520325 110.75210266 97.48338074 109.54656982 97.49180603 C105.68631489 97.5165545 101.82609647 97.53314912 97.96578979 97.54759216 C96.62909567 97.5529591 95.29240159 97.55833662 93.95570755 97.56372452 C88.38982007 97.5853271 82.82393528 97.60405862 77.25801659 97.61534691 C69.32140822 97.63155788 61.38529137 97.6646957 53.44886816 97.72174776 C47.84602268 97.76063147 42.24330764 97.78000119 36.64033091 97.78526747 C33.30464592 97.78889595 29.9699021 97.80320676 26.63428879 97.83337021 C3.8505348 98.02764862 -5.23067222 95.02448463 -26.12014771 83.27415466 C-26.12014771 59.18415466 -26.12014771 35.09415466 -26.12014771 10.27415466 C-8.22150814 0.04636063 -8.22150814 0.04636063 0 0 Z " fill="#F8F8F8" transform="translate(74.12014770507813,235.72584533691406)"/>
<path d="M0 0 C90.09 0 180.18 0 273 0 C273 84.81 273 169.62 273 257 C272.34 256.01 271.68 255.02 271 254 C267.57345625 249.02461604 264.11007607 244.93811089 259.3203125 241.2265625 C258.88460938 240.82179687 258.44890625 240.41703125 258 240 C258 239.34 258 238.68 258 238 C263.94 238.99 263.94 238.99 270 240 C270 235.05 270 230.1 270 225 C265.05 225 260.1 225 255 225 C255 220.05 255 215.1 255 210 C259.95 210 264.9 210 270 210 C270 205.05 270 200.1 270 195 C265.05 195 260.1 195 255 195 C255 190.05 255 185.1 255 180 C259.95 180 264.9 180 270 180 C270 175.05 270 170.1 270 165 C260.1 165 250.2 165 240 165 C240 160.05 240 155.1 240 150 C235.05 150 230.1 150 225 150 C225 145.05 225 140.1 225 135 C220.05 135 215.1 135 210 135 C210 130.05 210 125.1 210 120 C208.35 120 206.7 120 205 120 C205 115.05 205 110.1 205 105 C206.98567708 104.77213542 208.97135417 104.54427083 210.95703125 104.31640625 C213.19396393 104.02829265 213.19396393 104.02829265 216 103 C216.66 103 217.32 103 218 103 C220.13538186 100.60451023 221.8707223 97.89175475 223.6875 95.25 C224.21150391 94.52039063 224.73550781 93.79078125 225.27539062 93.0390625 C225.76587891 92.33007812 226.25636719 91.62109375 226.76171875 90.890625 C227.21506592 90.24125977 227.66841309 89.59189453 228.13549805 88.92285156 C229.15783671 87.03870498 229.15783671 87.03870498 228.89794922 84.94848633 C227.69579589 82.33989858 226.28212568 81.47986186 223.87109375 79.93359375 C222.57824463 79.09042603 222.57824463 79.09042603 221.25927734 78.23022461 C220.32809082 77.63862549 219.3969043 77.04702637 218.4375 76.4375 C216.50067055 75.178054 214.56447784 73.91762827 212.62890625 72.65625 C211.66871582 72.03492187 210.70852539 71.41359375 209.71923828 70.7734375 C206.06197724 68.38823871 202.4626836 65.92565757 198.875 63.4375 C197.58734567 62.54802348 196.29958408 61.65870223 195.01171875 60.76953125 C194.36380371 60.32174316 193.71588867 59.87395508 193.04833984 59.41259766 C189.26871246 56.80605128 185.47759201 54.21629538 181.6875 51.625 C180.8919873 51.08093506 180.09647461 50.53687012 179.27685547 49.97631836 C177.65905833 48.86989388 176.04121961 47.76353021 174.42333984 46.65722656 C170.44837668 43.93890599 166.47422452 41.21940031 162.5 38.5 C160.91667066 37.41666083 159.33333732 36.3333275 157.75 35.25 C148.25 28.75 148.25 28.75 145.87182617 27.12280273 C144.29910425 26.04674688 142.72635069 24.97073725 141.15356445 23.89477539 C137.03260705 21.07548804 132.91231146 18.25523996 128.79296875 15.43359375 C127.51099609 14.55574219 127.51099609 14.55574219 126.203125 13.66015625 C124.57401419 12.5445695 122.94509547 11.42870216 121.31640625 10.3125 C119.86424067 9.31824726 118.40917048 8.32821825 116.95068359 7.34326172 C115.71522789 6.49251362 114.49650535 5.61647472 113.30322266 4.70751953 C110.29423968 2.45915832 110.29423968 2.45915832 106.65478516 2.19921875 C103.58374981 3.12555643 101.41160668 4.45048024 98.75390625 6.24609375 C97.7589917 6.91342529 96.76407715 7.58075684 95.73901367 8.26831055 C94.69076416 8.98414307 93.64251465 9.69997559 92.5625 10.4375 C91.48009033 11.16815674 90.39768066 11.89881348 89.2824707 12.65161133 C82.62603318 17.16087528 76.04315192 21.75797478 69.53125 26.47265625 C64.96678274 29.76215531 60.32648692 32.94190424 55.6875 36.125 C54.84340576 36.70660889 53.99931152 37.28821777 53.12963867 37.88745117 C52.3482251 38.42217041 51.56681152 38.95688965 50.76171875 39.5078125 C50.06006592 39.98879395 49.35841309 40.46977539 48.63549805 40.96533203 C47 42 47 42 46 42 C46 35.73 46 29.46 46 23 C36.1 23 26.2 23 16 23 C16.07885073 28.74384586 16.07885073 28.74384586 16.18017578 34.48730469 C16.1851709 35.20821289 16.19016602 35.92912109 16.1953125 36.671875 C16.20578613 37.4050293 16.21625977 38.13818359 16.22705078 38.89355469 C16 41 16 41 14 45 C9.38 45 4.76 45 0 45 C0 40.05 0 35.1 0 30 C-4.95 30 -9.9 30 -15 30 C-15 25.05 -15 20.1 -15 15 C-10.05 15 -5.1 15 0 15 C0 10.05 0 5.1 0 0 Z " fill="#F5F5F5" transform="translate(75,0)"/>
<path d="M0 0 C2.8046875 1.72265625 2.8046875 1.72265625 5.875 4.0625 C12.43117011 8.94677373 19.17862869 13.49481302 26 18 C33.50516181 22.97109302 40.90130207 28.02643483 48.1875 33.3125 C53.36534076 37.01095768 58.69642726 40.48575515 64 44 C71.39537781 48.90188902 78.70376329 53.86011451 85.87109375 59.08984375 C89.53239 61.71375636 93.28307688 64.20018897 97.03515625 66.69140625 C98.32270433 67.55020469 99.61013799 68.40917468 100.89746094 69.26831055 C102.84737813 70.56948121 104.79947328 71.86646634 106.76037598 73.15103149 C108.60367076 74.35884053 110.43717804 75.58036539 112.26953125 76.8046875 C113.34823486 77.51608887 114.42693848 78.22749023 115.53833008 78.96044922 C118 81 118 81 119.01611328 83.00537109 C118.99405087 85.73642991 118.08233735 86.91888113 116.47265625 89.109375 C115.92802734 89.86347656 115.38339844 90.61757812 114.82226562 91.39453125 C114.24154297 92.17183594 113.66082031 92.94914062 113.0625 93.75 C112.48564453 94.54277344 111.90878906 95.33554688 111.31445312 96.15234375 C109.88739607 98.11012451 108.44913352 100.05853469 107 102 C103.37723685 100.6744419 100.36494652 99.05653045 97.1875 96.875 C96.39730469 96.33617188 95.60710937 95.79734375 94.79296875 95.2421875 C94.20128906 94.83226563 93.60960937 94.42234375 93 94 C93.0040642 94.60407621 93.0081284 95.20815243 93.01231575 95.83053398 C93.10798084 110.56341975 93.14801844 125.29574121 93.12697029 140.02889824 C93.11811734 147.15407717 93.12774244 154.27831688 93.18164062 161.40332031 C93.22859926 167.61726785 93.24010037 173.83012454 93.2099179 180.04419339 C93.19516421 183.33183569 93.20284681 186.61688447 93.24249649 189.90438461 C93.48572633 211.54081894 93.48572633 211.54081894 89.80900574 216.78961182 C87.32601967 219.30949695 85.0004928 221.1516945 82 223 C80.89237892 223.94075543 79.79697115 224.89638224 78.72265625 225.875 C77.84480469 226.57625 76.96695313 227.2775 76.0625 228 C75.16660156 228.721875 74.27070313 229.44375 73.34765625 230.1875 C71.61482039 231.52533002 69.8215079 232.7856614 68 234 C68 182.19 68 130.38 68 77 C66.35 76.34 64.7 75.68 63 75 C61.14160156 73.86181641 61.14160156 73.86181641 59.390625 72.6015625 C58.72764404 72.1286377 58.06466309 71.65571289 57.3815918 71.16845703 C56.32645386 70.4044458 56.32645386 70.4044458 55.25 69.625 C53.72013651 68.53113192 52.19018623 67.43738519 50.66015625 66.34375 C49.8830127 65.78558594 49.10586914 65.22742188 48.30517578 64.65234375 C44.77895686 62.12475959 41.23348517 59.62473901 37.6875 57.125 C36.65520264 56.39579346 36.65520264 56.39579346 35.60205078 55.65185547 C31.69866198 52.89594304 27.78822151 50.15041525 23.87109375 47.4140625 C23.00403809 46.80812256 22.13698242 46.20218262 21.24365234 45.57788086 C19.51480597 44.37110547 17.78468631 43.1661519 16.05322266 41.96313477 C12.47402036 39.46935913 8.91501826 36.97119809 5.46484375 34.30078125 C4.50707031 33.56214844 3.54929688 32.82351562 2.5625 32.0625 C1.78003906 31.43472656 0.99757813 30.80695312 0.19140625 30.16015625 C-2.71360737 28.62220786 -3.8755531 29.09908586 -7 30 C-9.44308202 31.36384309 -9.44308202 31.36384309 -11.8515625 33.140625 C-12.77573975 33.79264893 -13.69991699 34.44467285 -14.65209961 35.11645508 C-15.63315674 35.8205249 -16.61421387 36.52459473 -17.625 37.25 C-19.70134953 38.71811765 -21.77817945 40.18555612 -23.85546875 41.65234375 C-25.40886963 42.75425049 -25.40886963 42.75425049 -26.99365234 43.87841797 C-31.27769158 46.901668 -35.60335849 49.8617295 -39.9375 52.8125 C-41.47666035 53.86313792 -43.01572454 54.91391672 -44.5546875 55.96484375 C-45.29299805 56.46870605 -46.03130859 56.97256836 -46.79199219 57.49169922 C-50.38620219 59.9469214 -53.97491834 62.41010635 -57.5625 64.875 C-58.21677979 65.32375488 -58.87105957 65.77250977 -59.54516602 66.23486328 C-64.130868 69.3852917 -68.67244695 72.5934489 -73.1796875 75.85546875 C-75 77 -75 77 -77 77 C-77 119.24 -77 161.48 -77 205 C-84.92 205 -92.84 205 -101 205 C-101.33 168.7 -101.66 132.4 -102 95 C-105.63 97.31 -109.26 99.62 -113 102 C-114.60655674 99.77252265 -116.21029679 97.54310558 -117.8125 95.3125 C-118.49022461 94.37374023 -118.49022461 94.37374023 -119.18164062 93.41601562 C-126 83.91012774 -126 83.91012774 -126 81 C-124.53808594 79.79833984 -124.53808594 79.79833984 -122.484375 78.4609375 C-121.34742187 77.71263672 -121.34742187 77.71263672 -120.1875 76.94921875 C-119.383125 76.42972656 -118.57875 75.91023438 -117.75 75.375 C-115.37933169 73.8227767 -113.01333811 72.27038607 -110.67285156 70.67285156 C-108 69 -108 69 -104.75683594 67.53808594 C-101.05877582 65.67642514 -98.69006798 64.16853212 -96 61 C-93.9138975 54.44749855 -94.55058229 47.28256195 -94.75 40.5 C-94.76198631 38.60940179 -94.76854995 36.71876095 -94.76953125 34.828125 C-94.77357998 30.21257538 -94.88920977 25.6191004 -95 21 C-85.1 21 -75.2 21 -65 21 C-64.505 29.91 -64.505 29.91 -64 39 C-62.62972656 38.04222656 -61.25945312 37.08445313 -59.84765625 36.09765625 C-48.1520971 27.93572393 -36.41379439 19.84507211 -24.60375977 11.84985352 C-23.62463623 11.18655029 -22.6455127 10.52324707 -21.63671875 9.83984375 C-20.22011963 8.88827393 -20.22011963 8.88827393 -18.77490234 7.91748047 C-16.90620972 6.62619841 -15.06765448 5.29031408 -13.26025391 3.91455078 C-12.39706543 3.26341309 -11.53387695 2.61227539 -10.64453125 1.94140625 C-9.51494995 1.05690796 -9.51494995 1.05690796 -8.36254883 0.15454102 C-5.18069696 -1.4003807 -3.36304849 -0.92265407 0 0 Z " fill="#010101" transform="translate(186,2)"/>
<path d="M0 0 C6.28155321 1.33420853 10.51042906 4.13771717 15.625 7.9375 C17.09525034 9.01062853 18.56657671 10.08228464 20.0390625 11.15234375 C20.68053223 11.62663818 21.32200195 12.10093262 21.98291016 12.58959961 C24.01679315 14.09997776 24.01679315 14.09997776 26.58611584 15.1954546 C29 17 29 17 29.63085651 19.8054533 C29.63362189 20.95308557 29.63638727 22.10071783 29.63923645 23.28312683 C29.66216766 25.25822487 29.66216766 25.25822487 29.68556213 27.27322388 C29.67730965 28.73578148 29.66858085 30.19833645 29.65942383 31.66088867 C29.66787416 33.19827069 29.67851694 34.73564201 29.69119263 36.272995 C29.71940315 40.45051862 29.71685619 44.62752994 29.70889878 48.80512023 C29.7057794 53.16941813 29.73079132 57.53355121 29.75285339 61.89778137 C29.79034791 70.16379753 29.80244457 78.42964916 29.8054778 86.69574195 C29.81016278 96.10562732 29.84306804 105.51534727 29.87837565 114.92515981 C29.95037806 134.28342392 29.98683775 153.64161099 30 173 C30.74185547 172.32380615 31.48371094 171.6476123 32.24804688 170.95092773 C33.23826051 170.04929363 34.22849605 169.14768358 35.21875 168.24609375 C36.18748047 167.3636499 37.15621094 166.48120605 38.15429688 165.57202148 C41.18472835 162.83303765 44.25035433 160.14005463 47.34375 157.47265625 C47.8903125 156.98667969 48.436875 156.50070313 49 156 C49.5209364 155.57602778 50.04187281 155.15205557 50.57859516 154.71523571 C52.47877745 152.42225032 52.38327836 151.04052146 52.39872742 148.08357239 C52.41126556 147.06974991 52.42380371 146.05592743 52.4367218 145.01138306 C52.43528671 143.90008026 52.43385162 142.78877747 52.43237305 141.64379883 C52.4425647 140.47293228 52.45275635 139.30206573 52.46325684 138.09571838 C52.48829273 134.88519033 52.50011637 131.67493703 52.50611091 128.4643271 C52.51548474 125.10901493 52.54168725 121.75383559 52.56611633 118.39860535 C52.60981248 112.04510702 52.6383402 105.69163442 52.66143972 99.33803147 C52.68847478 92.10464964 52.73238726 84.87140122 52.77772844 77.63811457 C52.87061924 62.75881492 52.94227957 47.87948075 53 33 C54.84121215 34.09097798 56.67281256 35.19819251 58.5 36.3125 C59.5209375 36.92738281 60.541875 37.54226562 61.59375 38.17578125 C62.3878125 38.77777344 63.181875 39.37976563 64 40 C64 40.99 64 41.98 64 43 C61.03 43 58.06 43 55 43 C55 47.95 55 52.9 55 58 C56.65 58 58.3 58 60 58 C60 62.95 60 67.9 60 73 C64.95 73 69.9 73 75 73 C75 77.95 75 82.9 75 88 C79.95 88 84.9 88 90 88 C90 92.95 90 97.9 90 103 C99.9 103 109.8 103 120 103 C120 107.95 120 112.9 120 118 C115.05 118 110.1 118 105 118 C105 122.95 105 127.9 105 133 C109.95 133 114.9 133 120 133 C120 137.95 120 142.9 120 148 C115.05 148 110.1 148 105 148 C105 152.95 105 157.9 105 163 C109.95 163 114.9 163 120 163 C120 167.95 120 172.9 120 178 C113.71201924 178.2902145 109.72208681 177.67345272 104 175 C101.60482724 173.95681533 99.20899762 172.91513746 96.8125 171.875 C95.62269531 171.35679687 94.43289063 170.83859375 93.20703125 170.3046875 C83.13381612 166.20669255 72.24062539 167.14649516 62.09765625 170.68359375 C52.28985358 174.85160068 45.71933267 180.86000842 39 189 C32.18926782 197.07413026 25.75725654 203.6440819 16 208 C13.86920309 203.73840618 14.95497683 197.59236298 15 193 C19.95 193 24.9 193 30 193 C30 188.05 30 183.1 30 178 C25.05 178 20.1 178 15 178 C15 173.05 15 168.1 15 163 C18.96 163 22.92 163 27 163 C27 128.35 27 93.7 27 58 C23.04 58 19.08 58 15 58 C15 62.95 15 67.9 15 73 C10.05 73 5.1 73 0 73 C0 77.95 0 82.9 0 88 C-4.95 88 -9.9 88 -15 88 C-15 83.05 -15 78.1 -15 73 C-19.95 73 -24.9 73 -30 73 C-30 69.04 -30 65.08 -30 61 C-29.01 61 -28.02 61 -27 61 C-34.3346528 58.01641242 -41.08552218 57.15593519 -49 58 C-49.99 58.66 -50.98 59.32 -52 60 C-52.66721536 62.91440699 -52.66721536 62.91440699 -52 66 C-47.99818229 69.94656579 -43.28740041 71.76361295 -38.1875 73.875 C-28.3676999 78.11588138 -20.8122853 81.99881576 -16 92 C-15.1875 94.4375 -15.1875 94.4375 -15 97 C-14.94972656 97.65613281 -14.89945313 98.31226563 -14.84765625 98.98828125 C-14.52872531 106.37472184 -16.02705937 112.84930953 -20.625 118.75 C-25.10858202 123.56985067 -30.67354137 126.41838534 -37 128 C-37.33 132.62 -37.66 137.24 -38 142 C-43.28 142 -48.56 142 -54 142 C-54 137.71 -54 133.42 -54 129 C-54.928125 129.0825 -55.85625 129.165 -56.8125 129.25 C-64.05352694 129.26474751 -70.99840338 125.7807892 -77 122 C-76.35702496 119.37426939 -75.71075589 116.74942697 -75.0625 114.125 C-74.78889648 113.00544922 -74.78889648 113.00544922 -74.50976562 111.86328125 C-73.11328125 106.2265625 -73.11328125 106.2265625 -72 104 C-69.5613661 104.95145295 -67.16772636 105.91778708 -64.81640625 107.0703125 C-57.70574863 110.39765662 -50.77568128 111.13742627 -43 110 C-40.13613549 108.63785002 -39.64571951 107.84836069 -38 105 C-37.08333333 102.5 -37.08333333 102.5 -38 100 C-42.39346261 95.7425579 -46.62295888 93.70473443 -52.3125 91.625 C-61.96605143 87.85594206 -69.51081616 83.726565 -74 74 C-76.08486175 67.74541476 -76.21691582 59.71711522 -73.5 53.625 C-68.86713383 45.93606772 -62.47524845 42.25123787 -54 40 C-54 35.38 -54 30.76 -54 26 C-48.39 26 -42.78 26 -37 26 C-37 30.29 -37 34.58 -37 39 C-34.69 39 -32.38 39 -30 39 C-30 35.37 -30 31.74 -30 28 C-25.05 28 -20.1 28 -15 28 C-15 32.95 -15 37.9 -15 43 C-10.05 43 -5.1 43 0 43 C0 38.05 0 33.1 0 28 C4.95 28 9.9 28 15 28 C15 23.05 15 18.1 15 13 C10.05 13 5.1 13 0 13 C0 8.71 0 4.42 0 0 Z " fill="#F5F5F5" transform="translate(225,62)"/>
<path d="M0 0 C0.33 0 0.66 0 1 0 C1 28.71 1 57.42 1 87 C-98 87 -197 87 -299 87 C-299 82.38 -299 77.76 -299 73 C-294.12324964 74.95070014 -289.46007008 77.16472893 -284.7421875 79.46484375 C-276.12655783 83.22157501 -267.76711491 84.44142216 -258.43261719 84.35644531 C-257.33344467 84.35848969 -256.23427216 84.36053406 -255.10179138 84.36264038 C-251.4999783 84.36562655 -247.89863306 84.34722883 -244.296875 84.328125 C-241.77020378 84.32506213 -239.24353087 84.32319003 -236.71685791 84.32244873 C-231.43146282 84.3178584 -226.14618464 84.30388454 -220.86083984 84.28125 C-214.12202674 84.2524457 -207.38331915 84.24202786 -200.64445114 84.2375679 C-194.17441057 84.23238299 -187.70439953 84.21786262 -181.234375 84.203125 C-179.4092551 84.20030392 -179.4092551 84.20030392 -177.5472641 84.19742584 C-114.01471366 84.07059984 -57.50717711 63.7782163 -12.12402344 18.50366211 C-6.77172321 13.0020579 -2.44963071 7.34889212 0 0 Z " fill="#F0F0F0" transform="translate(347,265)"/>
<path d="M0 0 C5.61 0 11.22 0 17 0 C17 4.29 17 8.58 17 13 C18.835625 13.268125 20.67125 13.53625 22.5625 13.8125 C27.52757812 14.53773613 31.47714026 15.91822976 36 18 C35.41157717 20.81666361 34.80525764 23.62726432 34.1875 26.4375 C34.02185547 27.23994141 33.85621094 28.04238281 33.68554688 28.86914062 C33.22300247 30.93749958 32.62023759 32.97333737 32 35 C28.30287938 36.23237354 27.59826952 35.59300601 24.125 34.0625 C17.79463202 31.62319821 11.72751378 31.17817303 5 32 C4.01 32.66 3.02 33.32 2 34 C1.33278464 36.91440699 1.33278464 36.91440699 2 40 C6.00181771 43.94656579 10.71259959 45.76361295 15.8125 47.875 C25.6323001 52.11588138 33.1877147 55.99881576 38 66 C38.8125 68.4375 38.8125 68.4375 39 71 C39.05027344 71.65613281 39.10054687 72.31226563 39.15234375 72.98828125 C39.47127469 80.37472184 37.97294063 86.84930953 33.375 92.75 C28.89141798 97.56985067 23.32645863 100.41838534 17 102 C16.67 106.62 16.34 111.24 16 116 C10.72 116 5.44 116 0 116 C0 111.71 0 107.42 0 103 C-0.928125 103.0825 -1.85625 103.165 -2.8125 103.25 C-10.05352694 103.26474751 -16.99840338 99.7807892 -23 96 C-22.35702496 93.37426939 -21.71075589 90.74942697 -21.0625 88.125 C-20.78889648 87.00544922 -20.78889648 87.00544922 -20.50976562 85.86328125 C-19.11328125 80.2265625 -19.11328125 80.2265625 -18 78 C-15.5613661 78.95145295 -13.16772636 79.91778708 -10.81640625 81.0703125 C-3.70574863 84.39765662 3.22431872 85.13742627 11 84 C13.86386451 82.63785002 14.35428049 81.84836069 16 79 C16.91666667 76.5 16.91666667 76.5 16 74 C11.60653739 69.7425579 7.37704112 67.70473443 1.6875 65.625 C-7.96605143 61.85594206 -15.51081616 57.726565 -20 48 C-22.08486175 41.74541476 -22.21691582 33.71711522 -19.5 27.625 C-14.86713383 19.93606772 -8.47524845 16.25123787 0 14 C0 9.38 0 4.76 0 0 Z " fill="#030303" transform="translate(171,88)"/>
<path d="M0 0 C4.93064247 2.95838548 6.348421 4.51530768 9.3125 9.1875 C10.00988281 10.27417969 10.70726563 11.36085938 11.42578125 12.48046875 C11.94527344 13.31191406 12.46476562 14.14335938 13 15 C13.83144531 14.44119141 13.83144531 14.44119141 14.6796875 13.87109375 C15.40414062 13.39800781 16.12859375 12.92492187 16.875 12.4375 C17.59429687 11.96183594 18.31359375 11.48617187 19.0546875 10.99609375 C19.69664063 10.66738281 20.33859375 10.33867188 21 10 C21.66 10.33 22.32 10.66 23 11 C23 12.98 23 14.96 23 17 C15.41 17 7.82 17 0 17 C0 11.39 0 5.78 0 0 Z M24 8 C24.33 8 24.66 8 25 8 C25 44.63 25 81.26 25 119 C32.92 119 40.84 119 49 119 C49 115.04 49 111.08 49 107 C49.1351726 104.24827215 49.29648012 101.49751841 49.5 98.75 C49.63921875 96.82414062 49.63921875 96.82414062 49.78125 94.859375 C49.8534375 93.91578125 49.925625 92.9721875 50 92 C53.3 92 56.6 92 60 92 C60 96.95 60 101.9 60 107 C64.95 107 69.9 107 75 107 C75 102.05 75 97.1 75 92 C78.96 92 82.92 92 87 92 C87.309375 92.969375 87.61875 93.93875 87.9375 94.9375 C88.69523342 97.84065792 88.69523342 97.84065792 90 99 C90 101.64 90 104.28 90 107 C96.27 107 102.54 107 109 107 C108.04134491 104.66924071 108.04134491 104.66924071 105 103 C106.98 103 108.96 103 111 103 C111 107.29 111 111.58 111 116 C116.28 116 121.56 116 127 116 C127 111.38 127 106.76 127 102 C135.45921788 98.08603352 135.45921788 98.08603352 138.75 97.5625 C141.31262763 97.1268375 141.31262763 97.1268375 143.5625 94.4375 C144.7690625 93.2309375 144.7690625 93.2309375 146 92 C147.32 92 148.64 92 150 92 C150 96.95 150 101.9 150 107 C145.05 107 140.1 107 135 107 C135 111.95 135 116.9 135 122 C130.05 122 125.1 122 120 122 C120 124.64 120 127.28 120 130 C115.05 130 110.1 130 105 130 C105 127.36 105 124.72 105 122 C100.05 122 95.1 122 90 122 C90 124.64 90 127.28 90 130 C85.05 130 80.1 130 75 130 C75 127.36 75 124.72 75 122 C70.05 122 65.1 122 60 122 C60 124.64 60 127.28 60 130 C55.05 130 50.1 130 45 130 C45 127.36 45 124.72 45 122 C40.05 122 35.1 122 30 122 C30 124.64 30 127.28 30 130 C25.05 130 20.1 130 15 130 C15 127.36 15 124.72 15 122 C10.05 122 5.1 122 0 122 C0 117.05 0 112.1 0 107 C4.95 107 9.9 107 15 107 C15 102.05 15 97.1 15 92 C17.64 92 20.28 92 23 92 C22.99777939 90.96239029 22.99555878 89.92478058 22.99327087 88.85572815 C22.97303972 79.09923729 22.95802799 69.34275067 22.94818783 59.58624363 C22.94295893 54.5697753 22.93586117 49.55332385 22.92456055 44.53686523 C22.9137319 39.69990306 22.90772321 34.86295716 22.90512276 30.02598381 C22.90326847 28.17631715 22.89964778 26.32665143 22.89426994 24.47699165 C22.8870598 21.89552986 22.88600905 19.31413618 22.88647461 16.73266602 C22.88287933 15.96014999 22.87928406 15.18763397 22.87557983 14.39170837 C22.88594784 9.11405216 22.88594784 9.11405216 24 8 Z " fill="#F5F5F5" transform="translate(60,88)"/>
<path d="M0 0 C5.94 0 11.88 0 18 0 C18 84.81 18 169.62 18 257 C17.34 256.01 16.68 255.02 16 254 C12.57345625 249.02461604 9.11007607 244.93811089 4.3203125 241.2265625 C3.88460938 240.82179687 3.44890625 240.41703125 3 240 C3 239.34 3 238.68 3 238 C6.96 238.66 10.92 239.32 15 240 C15 235.05 15 230.1 15 225 C10.05 225 5.1 225 0 225 C0 220.05 0 215.1 0 210 C4.95 210 9.9 210 15 210 C15 205.05 15 200.1 15 195 C10.05 195 5.1 195 0 195 C0 190.05 0 185.1 0 180 C4.95 180 9.9 180 15 180 C15 175.05 15 170.1 15 165 C10.05 165 5.1 165 0 165 C0 160.05 0 155.1 0 150 C4.95 150 9.9 150 15 150 C15 145.05 15 140.1 15 135 C10.05 135 5.1 135 0 135 C0 130.05 0 125.1 0 120 C4.95 120 9.9 120 15 120 C15 115.05 15 110.1 15 105 C10.05 105 5.1 105 0 105 C0 100.05 0 95.1 0 90 C4.95 90 9.9 90 15 90 C15 85.05 15 80.1 15 75 C10.05 75 5.1 75 0 75 C0 70.05 0 65.1 0 60 C4.95 60 9.9 60 15 60 C15 55.05 15 50.1 15 45 C10.05 45 5.1 45 0 45 C0 40.05 0 35.1 0 30 C4.95 30 9.9 30 15 30 C15 25.05 15 20.1 15 15 C10.05 15 5.1 15 0 15 C0 10.05 0 5.1 0 0 Z " fill="#FEFEFE" transform="translate(330,0)"/>
<path d="M0 0 C4.95 0 9.9 0 15 0 C15 4.95 15 9.9 15 15 C19.95 15 24.9 15 30 15 C30 10.05 30 5.1 30 0 C34.95 0 39.9 0 45 0 C45 4.95 45 9.9 45 15 C49.95 15 54.9 15 60 15 C60 19.95 60 24.9 60 30 C53.71201924 30.2902145 49.72208681 29.67345272 44 27 C41.60482724 25.95681533 39.20899762 24.91513746 36.8125 23.875 C35.62269531 23.35679687 34.43289063 22.83859375 33.20703125 22.3046875 C23.13381612 18.20669255 12.24062539 19.14649516 2.09765625 22.68359375 C-7.71014642 26.85160068 -14.28066733 32.86000842 -21 41 C-27.81073218 49.07413026 -34.24274346 55.6440819 -44 60 C-46.13079691 55.73840618 -45.04502317 49.59236298 -45 45 C-40.05 45 -35.1 45 -30 45 C-30 40.05 -30 35.1 -30 30 C-25.05 30 -20.1 30 -15 30 C-15 25.05 -15 20.1 -15 15 C-10.05 15 -5.1 15 0 15 C0 10.05 0 5.1 0 0 Z " fill="#F0F0F0" transform="translate(285,210)"/>
<path d="M0 0 C0.66 0.33 1.32 0.66 2 1 C1.34 1.66 0.68 2.32 0 3 C-0.46290221 5.66242821 -0.46290221 5.66242821 -0.625 8.625 C-0.810625 11.285625 -0.810625 11.285625 -1 14 C3.95 14 8.9 14 14 14 C14 18.95 14 23.9 14 29 C9.05 29 4.1 29 -1 29 C-1 33.95 -1 38.9 -1 44 C-5.95 44 -10.9 44 -16 44 C-16 39.05 -16 34.1 -16 29 C-20.95 29 -25.9 29 -31 29 C-31 33.95 -31 38.9 -31 44 C-35.95 44 -40.9 44 -46 44 C-46.3728029 30.4548279 -46.3728029 30.4548279 -44.69287109 28.40527344 C-41.91655762 26.10062095 -38.64819143 24.6669417 -35.4375 23.0625 C-28.8429759 19.67280469 -22.59288845 15.94602195 -16.4375 11.8125 C-15.35069946 11.08268921 -15.35069946 11.08268921 -14.24194336 10.33813477 C-9.38629618 7.03303038 -4.6704945 3.56112456 0 0 Z " fill="#FCFCFC" transform="translate(316,301)"/>
<path d="M0 0 C4.95 0 9.9 0 15 0 C15 4.95 15 9.9 15 15 C19.95 15 24.9 15 30 15 C30 19.95 30 24.9 30 30 C34.95 30 39.9 30 45 30 C45 34.95 45 39.9 45 45 C49.95 45 54.9 45 60 45 C60 49.95 60 54.9 60 60 C56.37 60 52.74 60 49 60 C49 59.01 49 58.02 49 57 C48.66865076 54.26661952 48.31240855 53.27349083 46.21264648 51.43530273 C45.43993408 50.93973877 44.66722168 50.4441748 43.87109375 49.93359375 C43.00887207 49.37124023 42.14665039 48.80888672 41.25830078 48.22949219 C40.32743652 47.63813477 39.39657227 47.04677734 38.4375 46.4375 C36.50584808 45.18200804 34.57486442 43.92548736 32.64453125 42.66796875 C31.68498535 42.04712402 30.72543945 41.4262793 29.73681641 40.78662109 C25.33788861 37.91495708 21.02730837 34.9204102 16.71459961 31.92163086 C13.40260088 29.62726391 10.06820411 27.3832981 6.6796875 25.203125 C5.9789209 24.74905273 5.2781543 24.29498047 4.55615234 23.82714844 C3.21587015 22.96206009 1.87004445 22.10548238 0.51806641 21.25878906 C-1.04062323 20.24955339 -2.528807 19.13298772 -4 18 C-4 17.01 -4 16.02 -4 15 C-2.68 15 -1.36 15 0 15 C0 10.05 0 5.1 0 0 Z " fill="#F2F2F2" transform="translate(255,30)"/>
<path d="M0 0 C10.83984375 -0.09765625 10.83984375 -0.09765625 14 0 C15.71967487 1.71967487 15.20876572 4.15264147 15.3125 6.5 C15.81176767 12.86188051 16.85960511 18.93638738 21.59765625 23.55859375 C23.0544608 24.71921581 24.52614315 25.86111061 26 27 C26 27.99 26 28.98 26 30 C22.37 30 18.74 30 15 30 C15 34.95 15 39.9 15 45 C10.05 45 5.1 45 0 45 C0 40.05 0 35.1 0 30 C-4.95 30 -9.9 30 -15 30 C-15 25.05 -15 20.1 -15 15 C-10.05 15 -5.1 15 0 15 C0 10.05 0 5.1 0 0 Z " fill="#F6F6F6" transform="translate(135,120)"/>
<path d="M0 0 C4.95 0 9.9 0 15 0 C15 4.95 15 9.9 15 15 C19.95 15 24.9 15 30 15 C30 10.05 30 5.1 30 0 C34.95 0 39.9 0 45 0 C45 4.95 45 9.9 45 15 C49.95 15 54.9 15 60 15 C60 10.05 60 5.1 60 0 C64.95 0 69.9 0 75 0 C75 4.95 75 9.9 75 15 C79.95 15 84.9 15 90 15 C90 15.66 90 16.32 90 17 C94.62 17 99.24 17 104 17 C104 17.33 104 17.66 104 18 C90.82178067 18.06954746 77.64360509 18.12283555 64.46523952 18.15543652 C58.34581959 18.17108429 52.22652534 18.19230666 46.10717773 18.22631836 C40.20034107 18.258943 34.29362521 18.2768597 28.3867054 18.28463173 C26.13448244 18.29016962 23.88226599 18.30098375 21.63009453 18.31719017 C18.4725713 18.33900531 15.3155456 18.34196516 12.15795898 18.34057617 C11.22935059 18.351362 10.30074219 18.36214783 9.34399414 18.3732605 C3.79169228 18.34687665 -0.05209268 17.55365236 -5 15 C-4.01 14.67 -3.02 14.34 -2 14 C-1.34 14.33 -0.68 14.66 0 15 C0 10.05 0 5.1 0 0 Z " fill="#FCFCFC" transform="translate(75,315)"/>
<path d="M0 0 C-0.33 3.63 -0.66 7.26 -1 11 C-5.95 11 -10.9 11 -16 11 C-16 15.95 -16 20.9 -16 26 C-20.95 26 -25.9 26 -31 26 C-31 21.05 -31 16.1 -31 11 C-35.95 11 -40.9 11 -46 11 C-46 15.95 -46 20.9 -46 26 C-50.95 26 -55.9 26 -61 26 C-61 21.05 -61 16.1 -61 11 C-65.95 11 -70.9 11 -76 11 C-76 9.02 -76 7.04 -76 5 C-75.39881851 4.99413376 -74.79763702 4.98826752 -74.17823792 4.98222351 C-67.83330084 4.91752007 -61.4888356 4.83291956 -55.14428711 4.73754883 C-52.78692914 4.70460913 -50.42949816 4.67648459 -48.07202148 4.65356445 C-31.90484905 4.49220172 -15.69306127 0 0 0 Z " fill="#FDFDFD" transform="translate(241,289)"/>
<path d="M0 0 C4.93064247 2.95838548 6.348421 4.51530768 9.3125 9.1875 C10.00988281 10.27417969 10.70726563 11.36085938 11.42578125 12.48046875 C11.94527344 13.31191406 12.46476562 14.14335938 13 15 C13.83144531 14.44119141 13.83144531 14.44119141 14.6796875 13.87109375 C15.40414062 13.39800781 16.12859375 12.92492187 16.875 12.4375 C17.59429687 11.96183594 18.31359375 11.48617187 19.0546875 10.99609375 C19.69664063 10.66738281 20.33859375 10.33867188 21 10 C21.66 10.33 22.32 10.66 23 11 C23 12.98 23 14.96 23 17 C15.41 17 7.82 17 0 17 C0 11.39 0 5.78 0 0 Z M24 8 C24.33 8 24.66 8 25 8 C25 44.63 25 81.26 25 119 C32.92 119 40.84 119 49 119 C47.02 119.495 47.02 119.495 45 120 C45 120.66 45 121.32 45 122 C40.05 122 35.1 122 30 122 C30 124.64 30 127.28 30 130 C25.05 130 20.1 130 15 130 C15 127.36 15 124.72 15 122 C10.05 122 5.1 122 0 122 C0 117.05 0 112.1 0 107 C4.95 107 9.9 107 15 107 C15 102.05 15 97.1 15 92 C17.64 92 20.28 92 23 92 C22.99777939 90.96239029 22.99555878 89.92478058 22.99327087 88.85572815 C22.97303972 79.09923729 22.95802799 69.34275067 22.94818783 59.58624363 C22.94295893 54.5697753 22.93586117 49.55332385 22.92456055 44.53686523 C22.9137319 39.69990306 22.90772321 34.86295716 22.90512276 30.02598381 C22.90326847 28.17631715 22.89964778 26.32665143 22.89426994 24.47699165 C22.8870598 21.89552986 22.88600905 19.31413618 22.88647461 16.73266602 C22.88287933 15.96014999 22.87928406 15.18763397 22.87557983 14.39170837 C22.88594784 9.11405216 22.88594784 9.11405216 24 8 Z " fill="#F3F3F3" transform="translate(60,88)"/>
<path d="M0 0 C4.95 0 9.9 0 15 0 C15 2.64 15 5.28 15 8 C19.95 8 24.9 8 30 8 C30 5.36 30 2.72 30 0 C34.95 0 39.9 0 45 0 C45 2.64 45 5.28 45 8 C49.95 8 54.9 8 60 8 C60 5.36 60 2.72 60 0 C64.95 0 69.9 0 75 0 C75 2.64 75 5.28 75 8 C79.95 8 84.9 8 90 8 C90 5.36 90 2.72 90 0 C94.95 0 99.9 0 105 0 C105 2.64 105 5.28 105 8 C109.95 8 114.9 8 120 8 C120 5.36 120 2.72 120 0 C124.95 0 129.9 0 135 0 C135 3.63 135 7.26 135 11 C136.98 11.99 136.98 11.99 139 13 C135.83881232 12.57850831 132.70739197 12.14327833 129.58080292 11.510005 C122.89487821 10.15716896 116.54602843 9.71807584 109.73632812 9.75708008 C108.66974472 9.75518173 107.60316132 9.75328339 106.5042572 9.75132751 C103.01317762 9.74765274 99.52231078 9.75827804 96.03125 9.76953125 C93.58467635 9.77072519 91.13810224 9.77117576 88.69152832 9.7709198 C83.57768867 9.77247906 78.46391957 9.78072551 73.35009766 9.79418945 C66.81715245 9.81117822 60.2842846 9.81500337 53.75131989 9.81424427 C48.70338207 9.81451708 43.65546093 9.82001602 38.60752869 9.82724571 C36.19954047 9.83041258 33.79155037 9.83239512 31.38356018 9.83313942 C28.01023181 9.83532416 24.63698295 9.84411396 21.26367188 9.85473633 C20.28256943 9.85428314 19.30146698 9.85382996 18.29063416 9.85336304 C11.80567005 9.88300127 5.45208041 10.33956456 -1 11 C-0.67 7.37 -0.34 3.74 0 0 Z " fill="#FDFDFD" transform="translate(60,210)"/>
<path d="M0 0 C4.95 0 9.9 0 15 0 C15 4.95 15 9.9 15 15 C19.95 15 24.9 15 30 15 C30 16.65 30 18.3 30 20 C47.49 20.33 64.98 20.66 83 21 C83 21.33 83 21.66 83 22 C82.00441574 22.00586624 81.00883148 22.01173248 79.983078 22.01777649 C70.60966905 22.07494046 61.23649351 22.14766865 51.86332226 22.23571491 C47.04423373 22.2804803 42.22523095 22.31972268 37.40600586 22.34643555 C32.75689066 22.37240717 28.10810437 22.41276559 23.45919228 22.46318626 C21.68379107 22.47989667 19.90833292 22.49138489 18.132864 22.49761391 C15.64966565 22.50720987 13.1673167 22.53521373 10.68432617 22.56762695 C9.57841629 22.56547432 9.57841629 22.56547432 8.45016479 22.5632782 C4.514936 22.62118496 4.514936 22.62118496 1.10102844 24.39128113 C0.25778236 25.62335274 -0.533653 26.89102424 -1.30078125 28.171875 C-3 30 -3 30 -5.91796875 30.390625 C-6.99691406 30.34421875 -8.07585937 30.2978125 -9.1875 30.25 C-12.0646875 30.12625 -12.0646875 30.12625 -15 30 C-15 25.05 -15 20.1 -15 15 C-10.05 15 -5.1 15 0 15 C0 10.05 0 5.1 0 0 Z " fill="#EDEDED" transform="translate(120,255)"/>
<path d="M0 0 C4.95 0 9.9 0 15 0 C15 4.95 15 9.9 15 15 C19.95 15 24.9 15 30 15 C30 19.95 30 24.9 30 30 C26.04 30 22.08 30 18 30 C17.67 33.96 17.34 37.92 17 42 C16.67 42 16.34 42 16 42 C16 35.73 16 29.46 16 23 C13.84597656 23.01160156 11.69195312 23.02320312 9.47265625 23.03515625 C7.39428861 23.04294737 5.31592257 23.04902381 3.23754883 23.05493164 C1.78929927 23.05997101 0.34105483 23.06680253 -1.10717773 23.07543945 C-3.18474588 23.08752247 -5.26224697 23.09323211 -7.33984375 23.09765625 C-8.59144287 23.10289307 -9.84304199 23.10812988 -11.13256836 23.11352539 C-14 23 -14 23 -15 22 C-15 19.69 -15 17.38 -15 15 C-10.05 15 -5.1 15 0 15 C0 10.05 0 5.1 0 0 Z " fill="#F3F3F3" transform="translate(105,0)"/>
<path d="M0 0 C4.95 0 9.9 0 15 0 C15 4.95 15 9.9 15 15 C19.95 15 24.9 15 30 15 C30 16.65 30 18.3 30 20 C32.31 20 34.62 20 37 20 C37 20.33 37 20.66 37 21 C15.22 21 -6.56 21 -29 21 C-29 20.67 -29 20.34 -29 20 C-24.38 20 -19.76 20 -15 20 C-15 18.35 -15 16.7 -15 15 C-10.05 15 -5.1 15 0 15 C0 10.05 0 5.1 0 0 Z " fill="#FFFFFF" transform="translate(165,255)"/>
<path d="M0 0 C4.95 0 9.9 0 15 0 C15 4.95 15 9.9 15 15 C19.95 15 24.9 15 30 15 C30 19.95 30 24.9 30 30 C25 32 25 32 22.4921875 30.92944336 C21.62851563 30.32237549 20.76484375 29.71530762 19.875 29.08984375 C18.44414062 28.09887695 18.44414062 28.09887695 16.984375 27.08789062 C15.99953125 26.37826172 15.0146875 25.66863281 14 24.9375 C13.01515625 24.25494141 12.0303125 23.57238281 11.015625 22.86914062 C6.28995979 19.55159593 1.87874975 16.28835909 -2 12 C-1.34 12 -0.68 12 0 12 C0 8.04 0 4.08 0 0 Z " fill="#FEFEFE" transform="translate(225,15)"/>
<path d="M0 0 C0.33 0 0.66 0 1 0 C1 4.62 1 9.24 1 14 C-3.29 14 -7.58 14 -12 14 C-12 10.48299161 -11.30774533 9.63563853 -9.25 6.875 C-8.48429687 5.81925781 -8.48429687 5.81925781 -7.703125 4.7421875 C-5.76887709 2.7635761 -4.65298122 2.52843935 -2 2 C-1.34 1.34 -0.68 0.68 0 0 Z M-16 15 C-15.34 15.33 -14.68 15.66 -14 16 C-14 20.29 -14 24.58 -14 29 C-18.95 29 -23.9 29 -29 29 C-29 33.95 -29 38.9 -29 44 C-33.95 44 -38.9 44 -44 44 C-43.96744792 41.4609375 -43.93489583 38.921875 -43.90234375 36.3828125 C-43.83750743 33.9831415 -43.83750743 33.9831415 -45 32 C-44.11699219 31.6596875 -43.23398438 31.319375 -42.32421875 30.96875 C-33.9630028 27.59193239 -27.10511755 23.64796632 -20 18 C-18.6693779 16.9963952 -17.33702105 15.99506406 -16 15 Z " fill="#EDEDED" transform="translate(284,256)"/>
<path d="M0 0 C1.10085938 -0.01417969 2.20171875 -0.02835938 3.3359375 -0.04296875 C6.625 0.1875 6.625 0.1875 12.625 2.1875 C12.295 9.4475 11.965 16.7075 11.625 24.1875 C6.675 24.1875 1.725 24.1875 -3.375 24.1875 C-3.375 19.2375 -3.375 14.2875 -3.375 9.1875 C-8.325 9.1875 -13.275 9.1875 -18.375 9.1875 C-17.375 5.1875 -17.375 5.1875 -14.0625 3 C-9.37804833 0.44946341 -5.31797021 0.0309905 0 0 Z " fill="#FCFCFC" transform="translate(303.375,245.8125)"/>
<path d="M0 0 C4.95 0 9.9 0 15 0 C15 4.95 15 9.9 15 15 C19.95 15 24.9 15 30 15 C30 19.95 30 24.9 30 30 C23 30 23 30 20.91796875 28.2421875 C20.34691406 27.46101563 19.77585938 26.67984375 19.1875 25.875 C14.37779939 19.9143399 8.51969534 16.90063548 1.875 13.3125 C-1.34642406 9.33941032 -0.29510115 4.95769937 0 0 Z " fill="#EDEDED" transform="translate(195,210)"/>
<path d="M0 0 C1.32 0.33 2.64 0.66 4 1 C4 0.67 4 0.34 4 0 C34.36 0 64.72 0 96 0 C96 0.33 96 0.66 96 1 C79.17 1 62.34 1 45 1 C45 2.98 45 4.96 45 7 C30.15 7 15.3 7 0 7 C0 4.69 0 2.38 0 0 Z " fill="#CECECE" transform="translate(120,293)"/>
<path d="M0 0 C0.33 0 0.66 0 1 0 C1.33 53.13 1.66 106.26 2 161 C-2.95 161 -7.9 161 -13 161 C-13 156.05 -13 151.1 -13 146 C-9.04 146 -5.08 146 -1 146 C-0.67 97.82 -0.34 49.64 0 0 Z " fill="#E4E4E4" transform="translate(253,79)"/>
<path d="M0 0 C6.29470409 1.34053883 10.60009916 4.15820977 15.75 7.9375 C16.50410156 8.47568359 17.25820312 9.01386719 18.03515625 9.56835938 C24.79320634 14.43583595 24.79320634 14.43583595 27 17 C27.40199208 20.70368703 27.13187853 24.26344169 27 28 C23.04 28 19.08 28 15 28 C15 23.05 15 18.1 15 13 C10.05 13 5.1 13 0 13 C0 8.71 0 4.42 0 0 Z " fill="#EEEEEE" transform="translate(225,62)"/>
<path d="M0 0 C4.95 0 9.9 0 15 0 C15.390625 7.51953125 15.390625 7.51953125 15 10 C13.109375 11.69921875 13.109375 11.69921875 11 13 C10.34 13.66 9.68 14.32 9 15 C7.77658078 15.61144733 6.52602293 16.16971922 5.26171875 16.69140625 C4.52373047 16.99626953 3.78574219 17.30113281 3.02539062 17.61523438 C2.25388672 17.92783203 1.48238281 18.24042969 0.6875 18.5625 C-0.07240234 18.87896484 -0.83230469 19.19542969 -1.61523438 19.52148438 C-9.09538862 22.58243368 -9.09538862 22.58243368 -13 23 C-13.66 22.67 -14.32 22.34 -15 22 C-15 19.69 -15 17.38 -15 15 C-10.05 15 -5.1 15 0 15 C0 10.05 0 5.1 0 0 Z " fill="#EDEDED" transform="translate(255,300)"/>
<path d="M0 0 C5.61 0 11.22 0 17 0 C17 5.61 17 11.22 17 17 C11.39 17 5.78 17 0 17 C0 11.39 0 5.78 0 0 Z " fill="#FEFEFE" transform="translate(15,228)"/>
<path d="M0 0 C4.93064247 2.95838548 6.348421 4.51530768 9.3125 9.1875 C10.00988281 10.27417969 10.70726563 11.36085938 11.42578125 12.48046875 C11.94527344 13.31191406 12.46476562 14.14335938 13 15 C13.83144531 14.44119141 13.83144531 14.44119141 14.6796875 13.87109375 C15.40414062 13.39800781 16.12859375 12.92492187 16.875 12.4375 C17.59429687 11.96183594 18.31359375 11.48617187 19.0546875 10.99609375 C19.69664063 10.66738281 20.33859375 10.33867188 21 10 C21.66 10.33 22.32 10.66 23 11 C23 12.98 23 14.96 23 17 C15.41 17 7.82 17 0 17 C0 11.39 0 5.78 0 0 Z M24 8 C24.33 8 24.66 8 25 8 C25 44.63 25 81.26 25 119 C24.67 119 24.34 119 24 119 C23.84623153 104.67511139 23.69826177 90.35017306 23.5570364 76.02515507 C23.49129641 69.37424028 23.42367032 62.72336075 23.35180664 56.07250977 C23.28258659 49.66001108 23.2182256 43.24748071 23.15730476 36.83489799 C23.13313719 34.38234101 23.10718693 31.92980096 23.07946587 29.47728157 C23.04108433 26.05527523 23.0089114 22.63326478 22.97827148 19.21118164 C22.96532547 18.18619568 22.95237946 17.16120972 22.93904114 16.10516357 C22.9284819 14.71476616 22.9284819 14.71476616 22.91770935 13.29627991 C22.90941321 12.48602387 22.90111708 11.67576784 22.89256954 10.8409586 C23 9 23 9 24 8 Z " fill="#DBDBDB" transform="translate(60,88)"/>
<path d="M0 0 C7.96105362 0 14.24657017 2.80132622 20.75 7.375 C23 10 23 10 23.1875 13.5625 C21.82902698 17.49492191 20.45455717 18.78554028 17 21 C16.34 20.67 15.68 20.34 15 20 C15 17.69 15 15.38 15 13 C10.05 13 5.1 13 0 13 C0 8.71 0 4.42 0 0 Z " fill="#EFEFEF" transform="translate(165,152)"/>
<path d="M0 0 C0.66 0.33 1.32 0.66 2 1 C6.65994897 1.45258497 11.32682488 1.70261613 16 2 C16 6.95 16 11.9 16 17 C11.05 17 6.1 17 1 17 C0.67 12.71 0.34 8.42 0 4 C-1.32 4.99 -2.64 5.98 -4 7 C-4 4 -4 4 -2 1.8125 C-1.34 1.214375 -0.68 0.61625 0 0 Z " fill="#FFFFFF" transform="translate(284,253)"/>
<path d="M0 0 C4.3890815 0.51035831 7.33708062 1.52214277 11 4 C10.67 4.66 10.34 5.32 10 6 C9.34 5.67 8.68 5.34 8 5 C8 8.96 8 12.92 8 17 C3.05 17 -1.9 17 -7 17 C-7 12.05 -7 7.1 -7 2 C-3.535 1.505 -3.535 1.505 0 1 C0 0.67 0 0.34 0 0 Z " fill="#FDFDFD" transform="translate(187,238)"/>
<path d="M0 0 C2.43375 0.020625 4.8675 0.04125 7.375 0.0625 C7.375 5.0125 7.375 9.9625 7.375 15.0625 C2.755 15.0625 -1.865 15.0625 -6.625 15.0625 C-6.955 16.3825 -7.285 17.7025 -7.625 19.0625 C-8.285 13.1225 -8.945 7.1825 -9.625 1.0625 C-6.56118406 -0.46940797 -3.35534134 -0.03993613 0 0 Z " fill="#FEFEFE" transform="translate(217.625,149.9375)"/>
<path d="M0 0 C0.33 0 0.66 0 1 0 C1.2475 1.258125 1.495 2.51625 1.75 3.8125 C2.44529725 6.54540448 2.83154766 7.81349919 4.75 9.9375 C7.48231555 11.22776012 10.00872861 11.6600828 13 12 C13 12.33 13 12.66 13 13 C6.25 13.125 6.25 13.125 4 12 C3.67 13.98 3.34 15.96 3 18 C-1.95 18 -6.9 18 -12 18 C-12 13.05 -12 8.1 -12 3 C-8.04 3 -4.08 3 0 3 C0 2.01 0 1.02 0 0 Z " fill="#FEFEFE" transform="translate(117,282)"/>
<path d="M0 0 C4.95 0 9.9 0 15 0 C15.1953125 2.47395833 15.390625 4.94791667 15.5859375 7.421875 C15.99850055 9.99066382 16.71160957 11.75841015 18 14 C14.37918537 15.20693821 11.0749281 15.10782079 7.3125 15.0625 C3.6928125 15.0315625 3.6928125 15.0315625 0 15 C0 10.05 0 5.1 0 0 Z " fill="#FDFDFD" transform="translate(45,75)"/>
<path d="M0 0 C4.95 0 9.9 0 15 0 C15.33 4.95 15.66 9.9 16 15 C12.94730154 16.52634923 10.24154311 15.83794444 6.875 15.5625 C4.60625 15.376875 2.3375 15.19125 0 15 C0 10.05 0 5.1 0 0 Z " fill="#FEFEFE" transform="translate(135,105)"/>
<path d="M0 0 C4.69848693 0.03380206 9.31624605 0.57420419 14 1 C14 5.95 14 10.9 14 16 C9.05 16 4.1 16 -1 16 C-1.9765625 5.2578125 -1.9765625 5.2578125 -2 2 C-1.34 1.34 -0.68 0.68 0 0 Z " fill="#FFFFFF" transform="translate(271,269)"/>
<path d="M0 0 C3.02734375 0.390625 6.0546875 0.78125 9.08203125 1.171875 C9.08203125 6.121875 9.08203125 11.071875 9.08203125 16.171875 C4.13203125 16.171875 -0.81796875 16.171875 -5.91796875 16.171875 C-5.91796875 13.531875 -5.91796875 10.891875 -5.91796875 8.171875 C-6.57796875 8.171875 -7.23796875 8.171875 -7.91796875 8.171875 C-4.23983269 0.24973579 -4.23983269 0.24973579 0 0 Z " fill="#FEFEFE" transform="translate(305.91796875,88.828125)"/>
<path d="M0 0 C0.66 0.33 1.32 0.66 2 1 C1.67 1.33 1.34 1.66 1 2 C3.64 2.33 6.28 2.66 9 3 C9 7.95 9 12.9 9 18 C4.05 18 -0.9 18 -6 18 C-6.1953125 8.8203125 -6.1953125 8.8203125 -6 6 C-4 4 -2 2 0 0 Z " fill="#EDEDED" transform="translate(141,57)"/>
<path d="M0 0 C4.95 0 9.9 0 15 0 C15 4.95 15 9.9 15 15 C10.05 15 5.1 15 0 15 C0 10.05 0 5.1 0 0 Z " fill="#FFFFFF" transform="translate(330,330)"/>
<path d="M0 0 C4.95 0 9.9 0 15 0 C15 4.95 15 9.9 15 15 C10.05 15 5.1 15 0 15 C0 10.05 0 5.1 0 0 Z " fill="#FFFFFF" transform="translate(300,330)"/>
<path d="M0 0 C4.95 0 9.9 0 15 0 C15 4.95 15 9.9 15 15 C10.05 15 5.1 15 0 15 C0 10.05 0 5.1 0 0 Z " fill="#EEEEEE" transform="translate(285,330)"/>
<path d="M0 0 C4.95 0 9.9 0 15 0 C15 4.95 15 9.9 15 15 C10.05 15 5.1 15 0 15 C0 10.05 0 5.1 0 0 Z " fill="#FFFFFF" transform="translate(315,315)"/>
<path d="M0 0 C4.95 0 9.9 0 15 0 C15 4.95 15 9.9 15 15 C10.05 15 5.1 15 0 15 C0 10.05 0 5.1 0 0 Z " fill="#EEEEEE" transform="translate(300,315)"/>
<path d="M0 0 C4.95 0 9.9 0 15 0 C15 4.95 15 9.9 15 15 C10.05 15 5.1 15 0 15 C0 10.05 0 5.1 0 0 Z " fill="#EEEEEE" transform="translate(180,315)"/>
<path d="M0 0 C4.95 0 9.9 0 15 0 C15 4.95 15 9.9 15 15 C10.05 15 5.1 15 0 15 C0 10.05 0 5.1 0 0 Z " fill="#FFFFFF" transform="translate(165,315)"/>
<path d="M0 0 C4.95 0 9.9 0 15 0 C15 4.95 15 9.9 15 15 C10.05 15 5.1 15 0 15 C0 10.05 0 5.1 0 0 Z " fill="#EEEEEE" transform="translate(150,315)"/>
<path d="M0 0 C4.95 0 9.9 0 15 0 C15 4.95 15 9.9 15 15 C10.05 15 5.1 15 0 15 C0 10.05 0 5.1 0 0 Z " fill="#EEEEEE" transform="translate(120,315)"/>
<path d="M0 0 C4.95 0 9.9 0 15 0 C15 4.95 15 9.9 15 15 C10.05 15 5.1 15 0 15 C0 10.05 0 5.1 0 0 Z " fill="#EEEEEE" transform="translate(90,315)"/>
<path d="M0 0 C4.95 0 9.9 0 15 0 C15 4.95 15 9.9 15 15 C10.05 15 5.1 15 0 15 C0 10.05 0 5.1 0 0 Z " fill="#FFFFFF" transform="translate(330,300)"/>
<path d="M0 0 C4.95 0 9.9 0 15 0 C15 4.95 15 9.9 15 15 C10.05 15 5.1 15 0 15 C0 10.05 0 5.1 0 0 Z " fill="#FFFFFF" transform="translate(240,300)"/>
<path d="M0 0 C4.95 0 9.9 0 15 0 C15 4.95 15 9.9 15 15 C10.05 15 5.1 15 0 15 C0 10.05 0 5.1 0 0 Z " fill="#FFFFFF" transform="translate(210,300)"/>
<path d="M0 0 C4.95 0 9.9 0 15 0 C15 4.95 15 9.9 15 15 C10.05 15 5.1 15 0 15 C0 10.05 0 5.1 0 0 Z " fill="#EEEEEE" transform="translate(195,300)"/>
<path d="M0 0 C4.95 0 9.9 0 15 0 C15 4.95 15 9.9 15 15 C10.05 15 5.1 15 0 15 C0 10.05 0 5.1 0 0 Z " fill="#EEEEEE" transform="translate(165,300)"/>
<path d="M0 0 C4.95 0 9.9 0 15 0 C15 4.95 15 9.9 15 15 C10.05 15 5.1 15 0 15 C0 10.05 0 5.1 0 0 Z " fill="#FFFFFF" transform="translate(150,300)"/>
<path d="M0 0 C4.95 0 9.9 0 15 0 C15 4.95 15 9.9 15 15 C10.05 15 5.1 15 0 15 C0 10.05 0 5.1 0 0 Z " fill="#EEEEEE" transform="translate(135,300)"/>
<path d="M0 0 C4.95 0 9.9 0 15 0 C15 4.95 15 9.9 15 15 C10.05 15 5.1 15 0 15 C0 10.05 0 5.1 0 0 Z " fill="#FFFFFF" transform="translate(120,300)"/>
<path d="M0 0 C4.95 0 9.9 0 15 0 C15 4.95 15 9.9 15 15 C10.05 15 5.1 15 0 15 C0 10.05 0 5.1 0 0 Z " fill="#EEEEEE" transform="translate(105,300)"/>
<path d="M0 0 C4.95 0 9.9 0 15 0 C15 4.95 15 9.9 15 15 C10.05 15 5.1 15 0 15 C0 10.05 0 5.1 0 0 Z " fill="#FFFFFF" transform="translate(90,300)"/>
<path d="M0 0 C4.95 0 9.9 0 15 0 C15 4.95 15 9.9 15 15 C10.05 15 5.1 15 0 15 C0 10.05 0 5.1 0 0 Z " fill="#EEEEEE" transform="translate(75,300)"/>
<path d="M0 0 C4.95 0 9.9 0 15 0 C15 4.95 15 9.9 15 15 C10.05 15 5.1 15 0 15 C0 10.05 0 5.1 0 0 Z " fill="#FFFFFF" transform="translate(60,300)"/>
<path d="M0 0 C4.95 0 9.9 0 15 0 C15 4.95 15 9.9 15 15 C10.05 15 5.1 15 0 15 C0 10.05 0 5.1 0 0 Z " fill="#FFFFFF" transform="translate(255,285)"/>
<path d="M0 0 C4.95 0 9.9 0 15 0 C15 4.95 15 9.9 15 15 C10.05 15 5.1 15 0 15 C0 10.05 0 5.1 0 0 Z " fill="#EEEEEE" transform="translate(90,285)"/>
<path d="M0 0 C4.95 0 9.9 0 15 0 C15 4.95 15 9.9 15 15 C10.05 15 5.1 15 0 15 C0 10.05 0 5.1 0 0 Z " fill="#FFFFFF" transform="translate(75,285)"/>
<path d="M0 0 C4.95 0 9.9 0 15 0 C15 4.95 15 9.9 15 15 C10.05 15 5.1 15 0 15 C0 10.05 0 5.1 0 0 Z " fill="#EEEEEE" transform="translate(285,270)"/>
<path d="M0 0 C4.95 0 9.9 0 15 0 C15 4.95 15 9.9 15 15 C10.05 15 5.1 15 0 15 C0 10.05 0 5.1 0 0 Z " fill="#FFFFFF" transform="translate(90,270)"/>
<path d="M0 0 C4.95 0 9.9 0 15 0 C15 4.95 15 9.9 15 15 C10.05 15 5.1 15 0 15 C0 10.05 0 5.1 0 0 Z " fill="#EEEEEE" transform="translate(75,270)"/>
<path d="M0 0 C4.95 0 9.9 0 15 0 C15 4.95 15 9.9 15 15 C10.05 15 5.1 15 0 15 C0 10.05 0 5.1 0 0 Z " fill="#FFFFFF" transform="translate(60,270)"/>
<path d="M0 0 C4.95 0 9.9 0 15 0 C15 4.95 15 9.9 15 15 C10.05 15 5.1 15 0 15 C0 10.05 0 5.1 0 0 Z " fill="#EEEEEE" transform="translate(300,255)"/>
<path d="M0 0 C4.95 0 9.9 0 15 0 C15 4.95 15 9.9 15 15 C10.05 15 5.1 15 0 15 C0 10.05 0 5.1 0 0 Z " fill="#EEEEEE" transform="translate(180,255)"/>
<path d="M0 0 C4.95 0 9.9 0 15 0 C15 4.95 15 9.9 15 15 C10.05 15 5.1 15 0 15 C0 10.05 0 5.1 0 0 Z " fill="#EEEEEE" transform="translate(150,255)"/>
<path d="M0 0 C4.95 0 9.9 0 15 0 C15 4.95 15 9.9 15 15 C10.05 15 5.1 15 0 15 C0 10.05 0 5.1 0 0 Z " fill="#FFFFFF" transform="translate(135,255)"/>
<path d="M0 0 C4.95 0 9.9 0 15 0 C15 4.95 15 9.9 15 15 C10.05 15 5.1 15 0 15 C0 10.05 0 5.1 0 0 Z " fill="#FFFFFF" transform="translate(105,255)"/>
<path d="M0 0 C4.95 0 9.9 0 15 0 C15 4.95 15 9.9 15 15 C10.05 15 5.1 15 0 15 C0 10.05 0 5.1 0 0 Z " fill="#EEEEEE" transform="translate(90,255)"/>
<path d="M0 0 C4.95 0 9.9 0 15 0 C15 4.95 15 9.9 15 15 C10.05 15 5.1 15 0 15 C0 10.05 0 5.1 0 0 Z " fill="#FFFFFF" transform="translate(75,255)"/>
<path d="M0 0 C4.95 0 9.9 0 15 0 C15 4.95 15 9.9 15 15 C10.05 15 5.1 15 0 15 C0 10.05 0 5.1 0 0 Z " fill="#EEEEEE" transform="translate(60,255)"/>
<path d="M0 0 C4.95 0 9.9 0 15 0 C15 4.95 15 9.9 15 15 C10.05 15 5.1 15 0 15 C0 10.05 0 5.1 0 0 Z " fill="#FFFFFF" transform="translate(240,240)"/>
<path d="M0 0 C4.95 0 9.9 0 15 0 C15 4.95 15 9.9 15 15 C10.05 15 5.1 15 0 15 C0 10.05 0 5.1 0 0 Z " fill="#EEEEEE" transform="translate(165,240)"/>
<path d="M0 0 C4.95 0 9.9 0 15 0 C15 4.95 15 9.9 15 15 C10.05 15 5.1 15 0 15 C0 10.05 0 5.1 0 0 Z " fill="#FFFFFF" transform="translate(150,240)"/>
<path d="M0 0 C4.95 0 9.9 0 15 0 C15 4.95 15 9.9 15 15 C10.05 15 5.1 15 0 15 C0 10.05 0 5.1 0 0 Z " fill="#EEEEEE" transform="translate(135,240)"/>
<path d="M0 0 C4.95 0 9.9 0 15 0 C15 4.95 15 9.9 15 15 C10.05 15 5.1 15 0 15 C0 10.05 0 5.1 0 0 Z " fill="#FFFFFF" transform="translate(120,240)"/>
<path d="M0 0 C4.95 0 9.9 0 15 0 C15 4.95 15 9.9 15 15 C10.05 15 5.1 15 0 15 C0 10.05 0 5.1 0 0 Z " fill="#EEEEEE" transform="translate(105,240)"/>
<path d="M0 0 C4.95 0 9.9 0 15 0 C15 4.95 15 9.9 15 15 C10.05 15 5.1 15 0 15 C0 10.05 0 5.1 0 0 Z " fill="#FFFFFF" transform="translate(90,240)"/>
<path d="M0 0 C4.95 0 9.9 0 15 0 C15 4.95 15 9.9 15 15 C10.05 15 5.1 15 0 15 C0 10.05 0 5.1 0 0 Z " fill="#EEEEEE" transform="translate(75,240)"/>
<path d="M0 0 C4.95 0 9.9 0 15 0 C15 4.95 15 9.9 15 15 C10.05 15 5.1 15 0 15 C0 10.05 0 5.1 0 0 Z " fill="#FFFFFF" transform="translate(225,225)"/>
<path d="M0 0 C4.95 0 9.9 0 15 0 C15 4.95 15 9.9 15 15 C10.05 15 5.1 15 0 15 C0 10.05 0 5.1 0 0 Z " fill="#FFFFFF" transform="translate(300,210)"/>
<path d="M0 0 C4.95 0 9.9 0 15 0 C15 4.95 15 9.9 15 15 C10.05 15 5.1 15 0 15 C0 10.05 0 5.1 0 0 Z " fill="#EEEEEE" transform="translate(225,210)"/>
<path d="M0 0 C4.95 0 9.9 0 15 0 C15 4.95 15 9.9 15 15 C10.05 15 5.1 15 0 15 C0 10.05 0 5.1 0 0 Z " fill="#FFFFFF" transform="translate(210,210)"/>
<path d="M0 0 C4.95 0 9.9 0 15 0 C15 4.95 15 9.9 15 15 C10.05 15 5.1 15 0 15 C0 10.05 0 5.1 0 0 Z " fill="#EEEEEE" transform="translate(330,195)"/>
<path d="M0 0 C4.95 0 9.9 0 15 0 C15 4.95 15 9.9 15 15 C10.05 15 5.1 15 0 15 C0 10.05 0 5.1 0 0 Z " fill="#FFFFFF" transform="translate(315,195)"/>
<path d="M0 0 C4.95 0 9.9 0 15 0 C15 4.95 15 9.9 15 15 C10.05 15 5.1 15 0 15 C0 10.05 0 5.1 0 0 Z " fill="#EEEEEE" transform="translate(300,195)"/>
<path d="M0 0 C4.95 0 9.9 0 15 0 C15 4.95 15 9.9 15 15 C10.05 15 5.1 15 0 15 C0 10.05 0 5.1 0 0 Z " fill="#FFFFFF" transform="translate(285,195)"/>
<path d="M0 0 C4.95 0 9.9 0 15 0 C15 4.95 15 9.9 15 15 C10.05 15 5.1 15 0 15 C0 10.05 0 5.1 0 0 Z " fill="#FFFFFF" transform="translate(225,195)"/>
<path d="M0 0 C4.95 0 9.9 0 15 0 C15 4.95 15 9.9 15 15 C10.05 15 5.1 15 0 15 C0 10.05 0 5.1 0 0 Z " fill="#FFFFFF" transform="translate(195,195)"/>
<path d="M0 0 C4.95 0 9.9 0 15 0 C15 4.95 15 9.9 15 15 C10.05 15 5.1 15 0 15 C0 10.05 0 5.1 0 0 Z " fill="#EEEEEE" transform="translate(120,195)"/>
<path d="M0 0 C4.95 0 9.9 0 15 0 C15 4.95 15 9.9 15 15 C10.05 15 5.1 15 0 15 C0 10.05 0 5.1 0 0 Z " fill="#FFFFFF" transform="translate(45,195)"/>
<path d="M0 0 C4.95 0 9.9 0 15 0 C15 4.95 15 9.9 15 15 C10.05 15 5.1 15 0 15 C0 10.05 0 5.1 0 0 Z " fill="#FFFFFF" transform="translate(15,195)"/>
<path d="M0 0 C4.95 0 9.9 0 15 0 C15 4.95 15 9.9 15 15 C10.05 15 5.1 15 0 15 C0 10.05 0 5.1 0 0 Z " fill="#EEEEEE" transform="translate(0,195)"/>
<path d="M0 0 C4.95 0 9.9 0 15 0 C15 4.95 15 9.9 15 15 C10.05 15 5.1 15 0 15 C0 10.05 0 5.1 0 0 Z " fill="#EEEEEE" transform="translate(315,180)"/>
<path d="M0 0 C4.95 0 9.9 0 15 0 C15 4.95 15 9.9 15 15 C10.05 15 5.1 15 0 15 C0 10.05 0 5.1 0 0 Z " fill="#FFFFFF" transform="translate(300,180)"/>
<path d="M0 0 C4.95 0 9.9 0 15 0 C15 4.95 15 9.9 15 15 C10.05 15 5.1 15 0 15 C0 10.05 0 5.1 0 0 Z " fill="#EEEEEE" transform="translate(285,180)"/>
<path d="M0 0 C4.95 0 9.9 0 15 0 C15 4.95 15 9.9 15 15 C10.05 15 5.1 15 0 15 C0 10.05 0 5.1 0 0 Z " fill="#EEEEEE" transform="translate(225,180)"/>
<path d="M0 0 C4.95 0 9.9 0 15 0 C15 4.95 15 9.9 15 15 C10.05 15 5.1 15 0 15 C0 10.05 0 5.1 0 0 Z " fill="#FFFFFF" transform="translate(210,180)"/>
<path d="M0 0 C4.95 0 9.9 0 15 0 C15 4.95 15 9.9 15 15 C10.05 15 5.1 15 0 15 C0 10.05 0 5.1 0 0 Z " fill="#FFFFFF" transform="translate(120,180)"/>
<path d="M0 0 C4.95 0 9.9 0 15 0 C15 4.95 15 9.9 15 15 C10.05 15 5.1 15 0 15 C0 10.05 0 5.1 0 0 Z " fill="#FFFFFF" transform="translate(60,180)"/>
<path d="M0 0 C4.95 0 9.9 0 15 0 C15 4.95 15 9.9 15 15 C10.05 15 5.1 15 0 15 C0 10.05 0 5.1 0 0 Z " fill="#EEEEEE" transform="translate(45,180)"/>
<path d="M0 0 C4.95 0 9.9 0 15 0 C15 4.95 15 9.9 15 15 C10.05 15 5.1 15 0 15 C0 10.05 0 5.1 0 0 Z " fill="#FFFFFF" transform="translate(30,180)"/>
<path d="M0 0 C4.95 0 9.9 0 15 0 C15 4.95 15 9.9 15 15 C10.05 15 5.1 15 0 15 C0 10.05 0 5.1 0 0 Z " fill="#EEEEEE" transform="translate(15,180)"/>
<path d="M0 0 C4.95 0 9.9 0 15 0 C15 4.95 15 9.9 15 15 C10.05 15 5.1 15 0 15 C0 10.05 0 5.1 0 0 Z " fill="#FFFFFF" transform="translate(0,180)"/>
<path d="M0 0 C4.95 0 9.9 0 15 0 C15 4.95 15 9.9 15 15 C10.05 15 5.1 15 0 15 C0 10.05 0 5.1 0 0 Z " fill="#EEEEEE" transform="translate(330,165)"/>
<path d="M0 0 C4.95 0 9.9 0 15 0 C15 4.95 15 9.9 15 15 C10.05 15 5.1 15 0 15 C0 10.05 0 5.1 0 0 Z " fill="#FFFFFF" transform="translate(315,165)"/>
<path d="M0 0 C4.95 0 9.9 0 15 0 C15 4.95 15 9.9 15 15 C10.05 15 5.1 15 0 15 C0 10.05 0 5.1 0 0 Z " fill="#EEEEEE" transform="translate(300,165)"/>
<path d="M0 0 C4.95 0 9.9 0 15 0 C15 4.95 15 9.9 15 15 C10.05 15 5.1 15 0 15 C0 10.05 0 5.1 0 0 Z " fill="#FFFFFF" transform="translate(285,165)"/>
<path d="M0 0 C4.95 0 9.9 0 15 0 C15 4.95 15 9.9 15 15 C10.05 15 5.1 15 0 15 C0 10.05 0 5.1 0 0 Z " fill="#FFFFFF" transform="translate(225,165)"/>
<path d="M0 0 C4.95 0 9.9 0 15 0 C15 4.95 15 9.9 15 15 C10.05 15 5.1 15 0 15 C0 10.05 0 5.1 0 0 Z " fill="#EEEEEE" transform="translate(120,165)"/>
<path d="M0 0 C4.95 0 9.9 0 15 0 C15 4.95 15 9.9 15 15 C10.05 15 5.1 15 0 15 C0 10.05 0 5.1 0 0 Z " fill="#EEEEEE" transform="translate(60,165)"/>
<path d="M0 0 C4.95 0 9.9 0 15 0 C15 4.95 15 9.9 15 15 C10.05 15 5.1 15 0 15 C0 10.05 0 5.1 0 0 Z " fill="#FFFFFF" transform="translate(45,165)"/>
<path d="M0 0 C4.95 0 9.9 0 15 0 C15 4.95 15 9.9 15 15 C10.05 15 5.1 15 0 15 C0 10.05 0 5.1 0 0 Z " fill="#EEEEEE" transform="translate(30,165)"/>
<path d="M0 0 C4.95 0 9.9 0 15 0 C15 4.95 15 9.9 15 15 C10.05 15 5.1 15 0 15 C0 10.05 0 5.1 0 0 Z " fill="#FFFFFF" transform="translate(15,165)"/>
<path d="M0 0 C4.95 0 9.9 0 15 0 C15 4.95 15 9.9 15 15 C10.05 15 5.1 15 0 15 C0 10.05 0 5.1 0 0 Z " fill="#EEEEEE" transform="translate(0,165)"/>
<path d="M0 0 C4.95 0 9.9 0 15 0 C15 4.95 15 9.9 15 15 C10.05 15 5.1 15 0 15 C0 10.05 0 5.1 0 0 Z " fill="#EEEEEE" transform="translate(315,150)"/>
<path d="M0 0 C4.95 0 9.9 0 15 0 C15 4.95 15 9.9 15 15 C10.05 15 5.1 15 0 15 C0 10.05 0 5.1 0 0 Z " fill="#FFFFFF" transform="translate(300,150)"/>
<path d="M0 0 C4.95 0 9.9 0 15 0 C15 4.95 15 9.9 15 15 C10.05 15 5.1 15 0 15 C0 10.05 0 5.1 0 0 Z " fill="#EEEEEE" transform="translate(285,150)"/>
<path d="M0 0 C4.95 0 9.9 0 15 0 C15 4.95 15 9.9 15 15 C10.05 15 5.1 15 0 15 C0 10.05 0 5.1 0 0 Z " fill="#EEEEEE" transform="translate(225,150)"/>
<path d="M0 0 C4.95 0 9.9 0 15 0 C15 4.95 15 9.9 15 15 C10.05 15 5.1 15 0 15 C0 10.05 0 5.1 0 0 Z " fill="#EEEEEE" transform="translate(45,150)"/>
<path d="M0 0 C4.95 0 9.9 0 15 0 C15 4.95 15 9.9 15 15 C10.05 15 5.1 15 0 15 C0 10.05 0 5.1 0 0 Z " fill="#FFFFFF" transform="translate(30,150)"/>
<path d="M0 0 C4.95 0 9.9 0 15 0 C15 4.95 15 9.9 15 15 C10.05 15 5.1 15 0 15 C0 10.05 0 5.1 0 0 Z " fill="#EEEEEE" transform="translate(15,150)"/>
<path d="M0 0 C4.95 0 9.9 0 15 0 C15 4.95 15 9.9 15 15 C10.05 15 5.1 15 0 15 C0 10.05 0 5.1 0 0 Z " fill="#FFFFFF" transform="translate(0,150)"/>
<path d="M0 0 C4.95 0 9.9 0 15 0 C15 4.95 15 9.9 15 15 C10.05 15 5.1 15 0 15 C0 10.05 0 5.1 0 0 Z " fill="#EEEEEE" transform="translate(330,135)"/>
<path d="M0 0 C4.95 0 9.9 0 15 0 C15 4.95 15 9.9 15 15 C10.05 15 5.1 15 0 15 C0 10.05 0 5.1 0 0 Z " fill="#FFFFFF" transform="translate(315,135)"/>
<path d="M0 0 C4.95 0 9.9 0 15 0 C15 4.95 15 9.9 15 15 C10.05 15 5.1 15 0 15 C0 10.05 0 5.1 0 0 Z " fill="#EEEEEE" transform="translate(300,135)"/>
<path d="M0 0 C4.95 0 9.9 0 15 0 C15 4.95 15 9.9 15 15 C10.05 15 5.1 15 0 15 C0 10.05 0 5.1 0 0 Z " fill="#FFFFFF" transform="translate(285,135)"/>
<path d="M0 0 C4.95 0 9.9 0 15 0 C15 4.95 15 9.9 15 15 C10.05 15 5.1 15 0 15 C0 10.05 0 5.1 0 0 Z " fill="#FFFFFF" transform="translate(225,135)"/>
<path d="M0 0 C4.95 0 9.9 0 15 0 C15 4.95 15 9.9 15 15 C10.05 15 5.1 15 0 15 C0 10.05 0 5.1 0 0 Z " fill="#EEEEEE" transform="translate(120,135)"/>
<path d="M0 0 C4.95 0 9.9 0 15 0 C15 4.95 15 9.9 15 15 C10.05 15 5.1 15 0 15 C0 10.05 0 5.1 0 0 Z " fill="#EEEEEE" transform="translate(60,135)"/>
<path d="M0 0 C4.95 0 9.9 0 15 0 C15 4.95 15 9.9 15 15 C10.05 15 5.1 15 0 15 C0 10.05 0 5.1 0 0 Z " fill="#FFFFFF" transform="translate(45,135)"/>
<path d="M0 0 C4.95 0 9.9 0 15 0 C15 4.95 15 9.9 15 15 C10.05 15 5.1 15 0 15 C0 10.05 0 5.1 0 0 Z " fill="#EEEEEE" transform="translate(30,135)"/>
<path d="M0 0 C4.95 0 9.9 0 15 0 C15 4.95 15 9.9 15 15 C10.05 15 5.1 15 0 15 C0 10.05 0 5.1 0 0 Z " fill="#FFFFFF" transform="translate(15,135)"/>
<path d="M0 0 C4.95 0 9.9 0 15 0 C15 4.95 15 9.9 15 15 C10.05 15 5.1 15 0 15 C0 10.05 0 5.1 0 0 Z " fill="#EEEEEE" transform="translate(0,135)"/>
<path d="M0 0 C4.95 0 9.9 0 15 0 C15 4.95 15 9.9 15 15 C10.05 15 5.1 15 0 15 C0 10.05 0 5.1 0 0 Z " fill="#EEEEEE" transform="translate(315,120)"/>
<path d="M0 0 C4.95 0 9.9 0 15 0 C15 4.95 15 9.9 15 15 C10.05 15 5.1 15 0 15 C0 10.05 0 5.1 0 0 Z " fill="#FFFFFF" transform="translate(300,120)"/>
<path d="M0 0 C4.95 0 9.9 0 15 0 C15 4.95 15 9.9 15 15 C10.05 15 5.1 15 0 15 C0 10.05 0 5.1 0 0 Z " fill="#EEEEEE" transform="translate(285,120)"/>
<path d="M0 0 C4.95 0 9.9 0 15 0 C15 4.95 15 9.9 15 15 C10.05 15 5.1 15 0 15 C0 10.05 0 5.1 0 0 Z " fill="#FFFFFF" transform="translate(210,120)"/>
<path d="M0 0 C4.95 0 9.9 0 15 0 C15 4.95 15 9.9 15 15 C10.05 15 5.1 15 0 15 C0 10.05 0 5.1 0 0 Z " fill="#FFFFFF" transform="translate(120,120)"/>
<path d="M0 0 C4.95 0 9.9 0 15 0 C15 4.95 15 9.9 15 15 C10.05 15 5.1 15 0 15 C0 10.05 0 5.1 0 0 Z " fill="#FFFFFF" transform="translate(60,120)"/>
<path d="M0 0 C4.95 0 9.9 0 15 0 C15 4.95 15 9.9 15 15 C10.05 15 5.1 15 0 15 C0 10.05 0 5.1 0 0 Z " fill="#EEEEEE" transform="translate(45,120)"/>
<path d="M0 0 C4.95 0 9.9 0 15 0 C15 4.95 15 9.9 15 15 C10.05 15 5.1 15 0 15 C0 10.05 0 5.1 0 0 Z " fill="#FFFFFF" transform="translate(30,120)"/>
<path d="M0 0 C4.95 0 9.9 0 15 0 C15 4.95 15 9.9 15 15 C10.05 15 5.1 15 0 15 C0 10.05 0 5.1 0 0 Z " fill="#EEEEEE" transform="translate(15,120)"/>
<path d="M0 0 C4.95 0 9.9 0 15 0 C15 4.95 15 9.9 15 15 C10.05 15 5.1 15 0 15 C0 10.05 0 5.1 0 0 Z " fill="#FFFFFF" transform="translate(0,120)"/>
<path d="M0 0 C4.95 0 9.9 0 15 0 C15 4.95 15 9.9 15 15 C10.05 15 5.1 15 0 15 C0 10.05 0 5.1 0 0 Z " fill="#EEEEEE" transform="translate(330,105)"/>
<path d="M0 0 C4.95 0 9.9 0 15 0 C15 4.95 15 9.9 15 15 C10.05 15 5.1 15 0 15 C0 10.05 0 5.1 0 0 Z " fill="#FFFFFF" transform="translate(315,105)"/>
<path d="M0 0 C4.95 0 9.9 0 15 0 C15 4.95 15 9.9 15 15 C10.05 15 5.1 15 0 15 C0 10.05 0 5.1 0 0 Z " fill="#EEEEEE" transform="translate(300,105)"/>
<path d="M0 0 C4.95 0 9.9 0 15 0 C15 4.95 15 9.9 15 15 C10.05 15 5.1 15 0 15 C0 10.05 0 5.1 0 0 Z " fill="#FFFFFF" transform="translate(225,105)"/>
<path d="M0 0 C4.95 0 9.9 0 15 0 C15 4.95 15 9.9 15 15 C10.05 15 5.1 15 0 15 C0 10.05 0 5.1 0 0 Z " fill="#EEEEEE" transform="translate(120,105)"/>
<path d="M0 0 C4.95 0 9.9 0 15 0 C15 4.95 15 9.9 15 15 C10.05 15 5.1 15 0 15 C0 10.05 0 5.1 0 0 Z " fill="#EEEEEE" transform="translate(60,105)"/>
<path d="M0 0 C4.95 0 9.9 0 15 0 C15 4.95 15 9.9 15 15 C10.05 15 5.1 15 0 15 C0 10.05 0 5.1 0 0 Z " fill="#FFFFFF" transform="translate(45,105)"/>
<path d="M0 0 C4.95 0 9.9 0 15 0 C15 4.95 15 9.9 15 15 C10.05 15 5.1 15 0 15 C0 10.05 0 5.1 0 0 Z " fill="#EEEEEE" transform="translate(30,105)"/>
<path d="M0 0 C4.95 0 9.9 0 15 0 C15 4.95 15 9.9 15 15 C10.05 15 5.1 15 0 15 C0 10.05 0 5.1 0 0 Z " fill="#FFFFFF" transform="translate(15,105)"/>
<path d="M0 0 C4.95 0 9.9 0 15 0 C15 4.95 15 9.9 15 15 C10.05 15 5.1 15 0 15 C0 10.05 0 5.1 0 0 Z " fill="#EEEEEE" transform="translate(0,105)"/>
<path d="M0 0 C4.95 0 9.9 0 15 0 C15 4.95 15 9.9 15 15 C10.05 15 5.1 15 0 15 C0 10.05 0 5.1 0 0 Z " fill="#EEEEEE" transform="translate(315,90)"/>
<path d="M0 0 C4.95 0 9.9 0 15 0 C15 4.95 15 9.9 15 15 C10.05 15 5.1 15 0 15 C0 10.05 0 5.1 0 0 Z " fill="#EEEEEE" transform="translate(225,90)"/>
<path d="M0 0 C4.95 0 9.9 0 15 0 C15 4.95 15 9.9 15 15 C10.05 15 5.1 15 0 15 C0 10.05 0 5.1 0 0 Z " fill="#FFFFFF" transform="translate(210,90)"/>
<path d="M0 0 C4.95 0 9.9 0 15 0 C15 4.95 15 9.9 15 15 C10.05 15 5.1 15 0 15 C0 10.05 0 5.1 0 0 Z " fill="#EEEEEE" transform="translate(135,90)"/>
<path d="M0 0 C4.95 0 9.9 0 15 0 C15 4.95 15 9.9 15 15 C10.05 15 5.1 15 0 15 C0 10.05 0 5.1 0 0 Z " fill="#FFFFFF" transform="translate(120,90)"/>
<path d="M0 0 C4.95 0 9.9 0 15 0 C15 4.95 15 9.9 15 15 C10.05 15 5.1 15 0 15 C0 10.05 0 5.1 0 0 Z " fill="#EEEEEE" transform="translate(45,90)"/>
<path d="M0 0 C4.95 0 9.9 0 15 0 C15 4.95 15 9.9 15 15 C10.05 15 5.1 15 0 15 C0 10.05 0 5.1 0 0 Z " fill="#FFFFFF" transform="translate(30,90)"/>
<path d="M0 0 C4.95 0 9.9 0 15 0 C15 4.95 15 9.9 15 15 C10.05 15 5.1 15 0 15 C0 10.05 0 5.1 0 0 Z " fill="#EEEEEE" transform="translate(15,90)"/>
<path d="M0 0 C4.95 0 9.9 0 15 0 C15 4.95 15 9.9 15 15 C10.05 15 5.1 15 0 15 C0 10.05 0 5.1 0 0 Z " fill="#FFFFFF" transform="translate(0,90)"/>
<path d="M0 0 C4.95 0 9.9 0 15 0 C15 4.95 15 9.9 15 15 C10.05 15 5.1 15 0 15 C0 10.05 0 5.1 0 0 Z " fill="#EEEEEE" transform="translate(330,75)"/>
<path d="M0 0 C4.95 0 9.9 0 15 0 C15 4.95 15 9.9 15 15 C10.05 15 5.1 15 0 15 C0 10.05 0 5.1 0 0 Z " fill="#FFFFFF" transform="translate(315,75)"/>
<path d="M0 0 C4.95 0 9.9 0 15 0 C15 4.95 15 9.9 15 15 C10.05 15 5.1 15 0 15 C0 10.05 0 5.1 0 0 Z " fill="#FFFFFF" transform="translate(225,75)"/>
<path d="M0 0 C4.95 0 9.9 0 15 0 C15 4.95 15 9.9 15 15 C10.05 15 5.1 15 0 15 C0 10.05 0 5.1 0 0 Z " fill="#EEEEEE" transform="translate(210,75)"/>
<path d="M0 0 C4.95 0 9.9 0 15 0 C15 4.95 15 9.9 15 15 C10.05 15 5.1 15 0 15 C0 10.05 0 5.1 0 0 Z " fill="#FFFFFF" transform="translate(195,75)"/>
<path d="M0 0 C4.95 0 9.9 0 15 0 C15 4.95 15 9.9 15 15 C10.05 15 5.1 15 0 15 C0 10.05 0 5.1 0 0 Z " fill="#EEEEEE" transform="translate(150,75)"/>
<path d="M0 0 C4.95 0 9.9 0 15 0 C15 4.95 15 9.9 15 15 C10.05 15 5.1 15 0 15 C0 10.05 0 5.1 0 0 Z " fill="#FFFFFF" transform="translate(135,75)"/>
<path d="M0 0 C4.95 0 9.9 0 15 0 C15 4.95 15 9.9 15 15 C10.05 15 5.1 15 0 15 C0 10.05 0 5.1 0 0 Z " fill="#EEEEEE" transform="translate(120,75)"/>
<path d="M0 0 C4.95 0 9.9 0 15 0 C15 4.95 15 9.9 15 15 C10.05 15 5.1 15 0 15 C0 10.05 0 5.1 0 0 Z " fill="#EEEEEE" transform="translate(30,75)"/>
<path d="M0 0 C4.95 0 9.9 0 15 0 C15 4.95 15 9.9 15 15 C10.05 15 5.1 15 0 15 C0 10.05 0 5.1 0 0 Z " fill="#FFFFFF" transform="translate(15,75)"/>
<path d="M0 0 C4.95 0 9.9 0 15 0 C15 4.95 15 9.9 15 15 C10.05 15 5.1 15 0 15 C0 10.05 0 5.1 0 0 Z " fill="#EEEEEE" transform="translate(0,75)"/>
<path d="M0 0 C4.95 0 9.9 0 15 0 C15 4.95 15 9.9 15 15 C10.05 15 5.1 15 0 15 C0 10.05 0 5.1 0 0 Z " fill="#FFFFFF" transform="translate(330,60)"/>
<path d="M0 0 C4.95 0 9.9 0 15 0 C15 4.95 15 9.9 15 15 C10.05 15 5.1 15 0 15 C0 10.05 0 5.1 0 0 Z " fill="#EEEEEE" transform="translate(315,60)"/>
<path d="M0 0 C4.95 0 9.9 0 15 0 C15 4.95 15 9.9 15 15 C10.05 15 5.1 15 0 15 C0 10.05 0 5.1 0 0 Z " fill="#FFFFFF" transform="translate(300,60)"/>
<path d="M0 0 C4.95 0 9.9 0 15 0 C15 4.95 15 9.9 15 15 C10.05 15 5.1 15 0 15 C0 10.05 0 5.1 0 0 Z " fill="#EEEEEE" transform="translate(195,60)"/>
<path d="M0 0 C4.95 0 9.9 0 15 0 C15 4.95 15 9.9 15 15 C10.05 15 5.1 15 0 15 C0 10.05 0 5.1 0 0 Z " fill="#FFFFFF" transform="translate(180,60)"/>
<path d="M0 0 C4.95 0 9.9 0 15 0 C15 4.95 15 9.9 15 15 C10.05 15 5.1 15 0 15 C0 10.05 0 5.1 0 0 Z " fill="#EEEEEE" transform="translate(165,60)"/>
<path d="M0 0 C4.95 0 9.9 0 15 0 C15 4.95 15 9.9 15 15 C10.05 15 5.1 15 0 15 C0 10.05 0 5.1 0 0 Z " fill="#FFFFFF" transform="translate(150,60)"/>
<path d="M0 0 C4.95 0 9.9 0 15 0 C15 4.95 15 9.9 15 15 C10.05 15 5.1 15 0 15 C0 10.05 0 5.1 0 0 Z " fill="#EEEEEE" transform="translate(45,60)"/>
<path d="M0 0 C4.95 0 9.9 0 15 0 C15 4.95 15 9.9 15 15 C10.05 15 5.1 15 0 15 C0 10.05 0 5.1 0 0 Z " fill="#FFFFFF" transform="translate(30,60)"/>
<path d="M0 0 C4.95 0 9.9 0 15 0 C15 4.95 15 9.9 15 15 C10.05 15 5.1 15 0 15 C0 10.05 0 5.1 0 0 Z " fill="#EEEEEE" transform="translate(15,60)"/>
<path d="M0 0 C4.95 0 9.9 0 15 0 C15 4.95 15 9.9 15 15 C10.05 15 5.1 15 0 15 C0 10.05 0 5.1 0 0 Z " fill="#FFFFFF" transform="translate(0,60)"/>
<path d="M0 0 C4.95 0 9.9 0 15 0 C15 4.95 15 9.9 15 15 C10.05 15 5.1 15 0 15 C0 10.05 0 5.1 0 0 Z " fill="#EEEEEE" transform="translate(330,45)"/>
<path d="M0 0 C4.95 0 9.9 0 15 0 C15 4.95 15 9.9 15 15 C10.05 15 5.1 15 0 15 C0 10.05 0 5.1 0 0 Z " fill="#FFFFFF" transform="translate(315,45)"/>
<path d="M0 0 C4.95 0 9.9 0 15 0 C15 4.95 15 9.9 15 15 C10.05 15 5.1 15 0 15 C0 10.05 0 5.1 0 0 Z " fill="#EEEEEE" transform="translate(300,45)"/>
<path d="M0 0 C4.95 0 9.9 0 15 0 C15 4.95 15 9.9 15 15 C10.05 15 5.1 15 0 15 C0 10.05 0 5.1 0 0 Z " fill="#FFFFFF" transform="translate(285,45)"/>
<path d="M0 0 C4.95 0 9.9 0 15 0 C15 4.95 15 9.9 15 15 C10.05 15 5.1 15 0 15 C0 10.05 0 5.1 0 0 Z " fill="#EEEEEE" transform="translate(180,45)"/>
<path d="M0 0 C4.95 0 9.9 0 15 0 C15 4.95 15 9.9 15 15 C10.05 15 5.1 15 0 15 C0 10.05 0 5.1 0 0 Z " fill="#FFFFFF" transform="translate(165,45)"/>
<path d="M0 0 C4.95 0 9.9 0 15 0 C15 4.95 15 9.9 15 15 C10.05 15 5.1 15 0 15 C0 10.05 0 5.1 0 0 Z " fill="#EEEEEE" transform="translate(60,45)"/>
<path d="M0 0 C4.95 0 9.9 0 15 0 C15 4.95 15 9.9 15 15 C10.05 15 5.1 15 0 15 C0 10.05 0 5.1 0 0 Z " fill="#FFFFFF" transform="translate(45,45)"/>
<path d="M0 0 C4.95 0 9.9 0 15 0 C15 4.95 15 9.9 15 15 C10.05 15 5.1 15 0 15 C0 10.05 0 5.1 0 0 Z " fill="#EEEEEE" transform="translate(30,45)"/>
<path d="M0 0 C4.95 0 9.9 0 15 0 C15 4.95 15 9.9 15 15 C10.05 15 5.1 15 0 15 C0 10.05 0 5.1 0 0 Z " fill="#FFFFFF" transform="translate(15,45)"/>
<path d="M0 0 C4.95 0 9.9 0 15 0 C15 4.95 15 9.9 15 15 C10.05 15 5.1 15 0 15 C0 10.05 0 5.1 0 0 Z " fill="#EEEEEE" transform="translate(0,45)"/>
<path d="M0 0 C4.95 0 9.9 0 15 0 C15 4.95 15 9.9 15 15 C10.05 15 5.1 15 0 15 C0 10.05 0 5.1 0 0 Z " fill="#FFFFFF" transform="translate(330,30)"/>
<path d="M0 0 C4.95 0 9.9 0 15 0 C15 4.95 15 9.9 15 15 C10.05 15 5.1 15 0 15 C0 10.05 0 5.1 0 0 Z " fill="#EEEEEE" transform="translate(315,30)"/>
<path d="M0 0 C4.95 0 9.9 0 15 0 C15 4.95 15 9.9 15 15 C10.05 15 5.1 15 0 15 C0 10.05 0 5.1 0 0 Z " fill="#FFFFFF" transform="translate(300,30)"/>
<path d="M0 0 C4.95 0 9.9 0 15 0 C15 4.95 15 9.9 15 15 C10.05 15 5.1 15 0 15 C0 10.05 0 5.1 0 0 Z " fill="#EEEEEE" transform="translate(285,30)"/>
<path d="M0 0 C4.95 0 9.9 0 15 0 C15 4.95 15 9.9 15 15 C10.05 15 5.1 15 0 15 C0 10.05 0 5.1 0 0 Z " fill="#FFFFFF" transform="translate(270,30)"/>
<path d="M0 0 C4.95 0 9.9 0 15 0 C15 4.95 15 9.9 15 15 C10.05 15 5.1 15 0 15 C0 10.05 0 5.1 0 0 Z " fill="#EEEEEE" transform="translate(255,30)"/>
<path d="M0 0 C4.95 0 9.9 0 15 0 C15 4.95 15 9.9 15 15 C10.05 15 5.1 15 0 15 C0 10.05 0 5.1 0 0 Z " fill="#FFFFFF" transform="translate(60,30)"/>
<path d="M0 0 C4.95 0 9.9 0 15 0 C15 4.95 15 9.9 15 15 C10.05 15 5.1 15 0 15 C0 10.05 0 5.1 0 0 Z " fill="#EEEEEE" transform="translate(45,30)"/>
<path d="M0 0 C4.95 0 9.9 0 15 0 C15 4.95 15 9.9 15 15 C10.05 15 5.1 15 0 15 C0 10.05 0 5.1 0 0 Z " fill="#FFFFFF" transform="translate(30,30)"/>
<path d="M0 0 C4.95 0 9.9 0 15 0 C15 4.95 15 9.9 15 15 C10.05 15 5.1 15 0 15 C0 10.05 0 5.1 0 0 Z " fill="#EEEEEE" transform="translate(15,30)"/>
<path d="M0 0 C4.95 0 9.9 0 15 0 C15 4.95 15 9.9 15 15 C10.05 15 5.1 15 0 15 C0 10.05 0 5.1 0 0 Z " fill="#FFFFFF" transform="translate(0,30)"/>
<path d="M0 0 C4.95 0 9.9 0 15 0 C15 4.95 15 9.9 15 15 C10.05 15 5.1 15 0 15 C0 10.05 0 5.1 0 0 Z " fill="#EEEEEE" transform="translate(330,15)"/>
<path d="M0 0 C4.95 0 9.9 0 15 0 C15 4.95 15 9.9 15 15 C10.05 15 5.1 15 0 15 C0 10.05 0 5.1 0 0 Z " fill="#FFFFFF" transform="translate(315,15)"/>
<path d="M0 0 C4.95 0 9.9 0 15 0 C15 4.95 15 9.9 15 15 C10.05 15 5.1 15 0 15 C0 10.05 0 5.1 0 0 Z " fill="#EEEEEE" transform="translate(300,15)"/>
<path d="M0 0 C4.95 0 9.9 0 15 0 C15 4.95 15 9.9 15 15 C10.05 15 5.1 15 0 15 C0 10.05 0 5.1 0 0 Z " fill="#FFFFFF" transform="translate(285,15)"/>
<path d="M0 0 C4.95 0 9.9 0 15 0 C15 4.95 15 9.9 15 15 C10.05 15 5.1 15 0 15 C0 10.05 0 5.1 0 0 Z " fill="#EEEEEE" transform="translate(270,15)"/>
<path d="M0 0 C4.95 0 9.9 0 15 0 C15 4.95 15 9.9 15 15 C10.05 15 5.1 15 0 15 C0 10.05 0 5.1 0 0 Z " fill="#FFFFFF" transform="translate(255,15)"/>
<path d="M0 0 C4.95 0 9.9 0 15 0 C15 4.95 15 9.9 15 15 C10.05 15 5.1 15 0 15 C0 10.05 0 5.1 0 0 Z " fill="#EEEEEE" transform="translate(240,15)"/>
<path d="M0 0 C4.95 0 9.9 0 15 0 C15 4.95 15 9.9 15 15 C10.05 15 5.1 15 0 15 C0 10.05 0 5.1 0 0 Z " fill="#EEEEEE" transform="translate(60,15)"/>
<path d="M0 0 C4.95 0 9.9 0 15 0 C15 4.95 15 9.9 15 15 C10.05 15 5.1 15 0 15 C0 10.05 0 5.1 0 0 Z " fill="#FFFFFF" transform="translate(45,15)"/>
<path d="M0 0 C4.95 0 9.9 0 15 0 C15 4.95 15 9.9 15 15 C10.05 15 5.1 15 0 15 C0 10.05 0 5.1 0 0 Z " fill="#EEEEEE" transform="translate(30,15)"/>
<path d="M0 0 C4.95 0 9.9 0 15 0 C15 4.95 15 9.9 15 15 C10.05 15 5.1 15 0 15 C0 10.05 0 5.1 0 0 Z " fill="#FFFFFF" transform="translate(15,15)"/>
<path d="M0 0 C4.95 0 9.9 0 15 0 C15 4.95 15 9.9 15 15 C10.05 15 5.1 15 0 15 C0 10.05 0 5.1 0 0 Z " fill="#EEEEEE" transform="translate(0,15)"/>
<path d="M0 0 C4.95 0 9.9 0 15 0 C15 4.95 15 9.9 15 15 C10.05 15 5.1 15 0 15 C0 10.05 0 5.1 0 0 Z " fill="#EEEEEE" transform="translate(315,0)"/>
<path d="M0 0 C4.95 0 9.9 0 15 0 C15 4.95 15 9.9 15 15 C10.05 15 5.1 15 0 15 C0 10.05 0 5.1 0 0 Z " fill="#FFFFFF" transform="translate(300,0)"/>
<path d="M0 0 C4.95 0 9.9 0 15 0 C15 4.95 15 9.9 15 15 C10.05 15 5.1 15 0 15 C0 10.05 0 5.1 0 0 Z " fill="#EEEEEE" transform="translate(285,0)"/>
<path d="M0 0 C4.95 0 9.9 0 15 0 C15 4.95 15 9.9 15 15 C10.05 15 5.1 15 0 15 C0 10.05 0 5.1 0 0 Z " fill="#FFFFFF" transform="translate(270,0)"/>
<path d="M0 0 C4.95 0 9.9 0 15 0 C15 4.95 15 9.9 15 15 C10.05 15 5.1 15 0 15 C0 10.05 0 5.1 0 0 Z " fill="#EEEEEE" transform="translate(255,0)"/>
<path d="M0 0 C4.95 0 9.9 0 15 0 C15 4.95 15 9.9 15 15 C10.05 15 5.1 15 0 15 C0 10.05 0 5.1 0 0 Z " fill="#FFFFFF" transform="translate(240,0)"/>
<path d="M0 0 C4.95 0 9.9 0 15 0 C15 4.95 15 9.9 15 15 C10.05 15 5.1 15 0 15 C0 10.05 0 5.1 0 0 Z " fill="#FFFFFF" transform="translate(210,0)"/>
<path d="M0 0 C4.95 0 9.9 0 15 0 C15 4.95 15 9.9 15 15 C10.05 15 5.1 15 0 15 C0 10.05 0 5.1 0 0 Z " fill="#FFFFFF" transform="translate(120,0)"/>
<path d="M0 0 C4.95 0 9.9 0 15 0 C15 4.95 15 9.9 15 15 C10.05 15 5.1 15 0 15 C0 10.05 0 5.1 0 0 Z " fill="#FFFFFF" transform="translate(90,0)"/>
<path d="M0 0 C4.95 0 9.9 0 15 0 C15 4.95 15 9.9 15 15 C10.05 15 5.1 15 0 15 C0 10.05 0 5.1 0 0 Z " fill="#EEEEEE" transform="translate(75,0)"/>
<path d="M0 0 C4.95 0 9.9 0 15 0 C15 4.95 15 9.9 15 15 C10.05 15 5.1 15 0 15 C0 10.05 0 5.1 0 0 Z " fill="#FFFFFF" transform="translate(60,0)"/>
<path d="M0 0 C4.95 0 9.9 0 15 0 C15 4.95 15 9.9 15 15 C10.05 15 5.1 15 0 15 C0 10.05 0 5.1 0 0 Z " fill="#EEEEEE" transform="translate(45,0)"/>
<path d="M0 0 C4.95 0 9.9 0 15 0 C15 4.95 15 9.9 15 15 C10.05 15 5.1 15 0 15 C0 10.05 0 5.1 0 0 Z " fill="#FFFFFF" transform="translate(30,0)"/>
<path d="M0 0 C4.95 0 9.9 0 15 0 C15 4.95 15 9.9 15 15 C10.05 15 5.1 15 0 15 C0 10.05 0 5.1 0 0 Z " fill="#FFFFFF" transform="translate(0,0)"/>
<path d="M0 0 C4.95 0 9.9 0 15 0 C15 4.95 15 9.9 15 15 C2.25 15.125 2.25 15.125 0 14 C0 9.38 0 4.76 0 0 Z " fill="#EEEEEE" transform="translate(270,45)"/>
<path d="M0 0 C4.95 0 9.9 0 15 0 C15 4.95 15 9.9 15 15 C10.38 15 5.76 15 1 15 C-0.28579416 9.85682338 -0.06311236 5.30143797 0 0 Z " fill="#EEEEEE" transform="translate(225,240)"/>
<path d="M0 0 C4.95 0 9.9 0 15 0 C15 4.95 15 9.9 15 15 C11.04 15 7.08 15 3 15 C2.67 18.96 2.34 22.92 2 27 C1.67 27 1.34 27 1 27 C0.67 18.09 0.34 9.18 0 0 Z " fill="#E7E7E7" transform="translate(120,15)"/>
<path d="M0 0 C4.62 0 9.24 0 14 0 C14.71168463 3.55842314 15.13682142 6.22721632 15.125 9.75 C15.12757812 10.52859375 15.13015625 11.3071875 15.1328125 12.109375 C15 14 15 14 14 15 C9.33154772 15.14426614 4.67134047 15.04208415 0 15 C0 10.05 0 5.1 0 0 Z " fill="#EEEEEE" transform="translate(75,30)"/>
<path d="M0 0 C4.95 0 9.9 0 15 0 C15 4.95 15 9.9 15 15 C5.08188976 15.29606299 5.08188976 15.29606299 1 13 C-0.92572521 9.14854957 -0.04883218 4.19956748 0 0 Z " fill="#EEEEEE" transform="translate(330,225)"/>
<path d="M0 0 C0 9.9 0 19.8 0 30 C-0.33 30 -0.66 30 -1 30 C-1 25.38 -1 20.76 -1 16 C-4.96 16 -8.92 16 -13 16 C-13 11.05 -13 6.1 -13 1 C-1.125 0 -1.125 0 0 0 Z " fill="#FFFFFF" transform="translate(253,179)"/>
<path d="M0 0 C10.83984375 -0.09765625 10.83984375 -0.09765625 14 0 C15 1 15 1 15.1328125 2.99609375 C15.13023437 3.80175781 15.12765625 4.60742188 15.125 5.4375 C15.12757813 6.24058594 15.13015625 7.04367188 15.1328125 7.87109375 C15 10 15 10 14 12 C14 12.99 14 13.98 14 15 C9.38 15 4.76 15 0 15 C0 10.05 0 5.1 0 0 Z " fill="#ECECEC" transform="translate(135,120)"/>
<path d="M0 0 C3.96 0 7.92 0 12 0 C12.309375 0.969375 12.61875 1.93875 12.9375 2.9375 C13.69523342 5.84065792 13.69523342 5.84065792 15 7 C15.14115161 9.67058851 15.04247107 12.32432238 15 15 C10.05 15 5.1 15 0 15 C0 10.05 0 5.1 0 0 Z " fill="#EEEEEE" transform="translate(135,180)"/>
<path d="M0 0 C0.99 0.495 0.99 0.495 2 1 C1.67 3.64 1.34 6.28 1 9 C4.63 9 8.26 9 12 9 C12 13.95 12 18.9 12 24 C8.37 24 4.74 24 1 24 C1 28.95 1 33.9 1 39 C0.67 39 0.34 39 0 39 C0 26.13 0 13.26 0 0 Z " fill="#FFFFFF" transform="translate(48,246)"/>
<path d="M0 0 C4.95 0 9.9 0 15 0 C15 4.95 15 9.9 15 15 C7.61862314 15 6.56352168 14.78319474 1 11 C-0.71466036 7.57067929 -0.05404056 3.78283935 0 0 Z " fill="#EDEDED" transform="translate(60,315)"/>
<path d="M0 0 C4.95 0 9.9 0 15 0 C15 3.63 15 7.26 15 11 C5.25 15.3125 5.25 15.3125 0 14 C0 9.38 0 4.76 0 0 Z " fill="#EDEDED" transform="translate(210,315)"/>
<path d="M0 0 C4.95 0 9.9 0 15 0 C15 4.95 15 9.9 15 15 C13.02 15 11.04 15 9 15 C9 14.01 9 13.02 9 12 C6.03 12 3.06 12 0 12 C0 8.04 0 4.08 0 0 Z " fill="#EEEEEE" transform="translate(180,75)"/>
<path d="M0 0 C3.96 0 7.92 0 12 0 C12 4.95 12 9.9 12 15 C8.04 15 4.08 15 0 15 C0 10.05 0 5.1 0 0 Z " fill="#EEEEEE" transform="translate(240,195)"/>
<path d="M0 0 C3.96 0 7.92 0 12 0 C12 4.95 12 9.9 12 15 C8.04 15 4.08 15 0 15 C0 10.05 0 5.1 0 0 Z " fill="#EEEEEE" transform="translate(240,165)"/>
<path d="M0 0 C3.63 0 7.26 0 11 0 C11 4.95 11 9.9 11 15 C7.7 15 4.4 15 1 15 C1 19.95 1 24.9 1 30 C0.67 30 0.34 30 0 30 C0 20.1 0 10.2 0 0 Z " fill="#FFFFFF" transform="translate(109,165)"/>
<path d="M0 0 C3.96 0 7.92 0 12 0 C12 4.95 12 9.9 12 15 C8.04 15 4.08 15 0 15 C0 10.05 0 5.1 0 0 Z " fill="#EEEEEE" transform="translate(240,135)"/>
<path d="M0 0 C3.96 0 7.92 0 12 0 C12 4.95 12 9.9 12 15 C8.04 15 4.08 15 0 15 C0 10.05 0 5.1 0 0 Z " fill="#EEEEEE" transform="translate(240,105)"/>
<path d="M0 0 C0.66 0.33 1.32 0.66 2 1 C1.67 5.62 1.34 10.24 1 15 C-3.95 15 -8.9 15 -14 15 C-14 12.69 -14 10.38 -14 8 C-14.33 7.34 -14.66 6.68 -15 6 C-12.54524486 4.96971956 -10.08685649 3.95054496 -7.625 2.9375 C-6.57699219 2.49567383 -6.57699219 2.49567383 -5.5078125 2.04492188 C-3.69495092 1.30408902 -1.84876857 0.64603036 0 0 Z " fill="#ECECEC" transform="translate(269,330)"/>
<path d="M0 0 C4.95 0 9.9 0 15 0 C15 2.31 15 4.62 15 7 C15.66 7.33 16.32 7.66 17 8 C8.64140407 11.37558682 0.09768526 14.28345904 -9 14 C-6.25002779 12.5268006 -4.10380501 11.77595125 -1 11 C-0.67 7.37 -0.34 3.74 0 0 Z " fill="#FCFCFC" transform="translate(225,315)"/>
<path d="M0 0 C3.63 0 7.26 0 11 0 C11 4.95 11 9.9 11 15 C7.37 15 3.74 15 0 15 C0 10.05 0 5.1 0 0 Z " fill="#EEEEEE" transform="translate(49,300)"/>
<path d="M0 0 C3.63 0 7.26 0 11 0 C11 4.95 11 9.9 11 15 C7.37 15 3.74 15 0 15 C0 10.05 0 5.1 0 0 Z " fill="#EEEEEE" transform="translate(49,270)"/>
<path d="M0 0 C4.95 0 9.9 0 15 0 C15 3.96 15 7.92 15 12 C11.7 13.32 8.4 14.64 5 16 C3.67770811 13.35541621 3.90322806 11.32238699 3.9375 8.375 C3.94652344 7.37210938 3.95554688 6.36921875 3.96484375 5.3359375 C3.98224609 4.17964844 3.98224609 4.17964844 4 3 C2.68 2.67 1.36 2.34 0 2 C0 1.34 0 0.68 0 0 Z " fill="#EDEDED" transform="translate(45,210)"/>
<path d="M0 0 C7.92 0 15.84 0 24 0 C24.33 2.31 24.66 4.62 25 7 C23.26800997 8.73199003 21.05232665 8.29525228 18.6875 8.375 C11.66523752 8.35813983 6.21599598 6.08595545 0 3 C0 2.01 0 1.02 0 0 Z " fill="#FAFAFA" transform="translate(156,165)"/>
<path d="M0 0 C3.3 0 6.6 0 10 0 C10 4.95 10 9.9 10 15 C6.7 15 3.4 15 0 15 C0 10.05 0 5.1 0 0 Z " fill="#EEEEEE" transform="translate(110,180)"/>
<path d="M0 0 C0 9.9 0 19.8 0 30 C-0.33 30 -0.66 30 -1 30 C-1 25.38 -1 20.76 -1 16 C-3.64 16 -6.28 16 -9 16 C-9 11.05 -9 6.1 -9 1 C-1.125 0 -1.125 0 0 0 Z " fill="#FFFFFF" transform="translate(84,164)"/>
<path d="M0 0 C3.3 0 6.6 0 10 0 C10 4.95 10 9.9 10 15 C6.7 15 3.4 15 0 15 C0 10.05 0 5.1 0 0 Z " fill="#EEEEEE" transform="translate(110,150)"/>
<path d="M0 0 C3.3 0 6.6 0 10 0 C10 4.95 10 9.9 10 15 C6.7 15 3.4 15 0 15 C0 10.05 0 5.1 0 0 Z " fill="#EEEEEE" transform="translate(110,120)"/>
<path d="M0 0 C3.3 0 6.6 0 10 0 C10 4.95 10 9.9 10 15 C6.7 15 3.4 15 0 15 C0 10.05 0 5.1 0 0 Z " fill="#EEEEEE" transform="translate(110,90)"/>
<path d="M0 0 C4.78718692 -0.02471738 9.5743367 -0.04286825 14.36157227 -0.05493164 C15.99015958 -0.05996065 17.61874237 -0.06678465 19.24731445 -0.07543945 C21.58806472 -0.08756769 23.9287553 -0.09324263 26.26953125 -0.09765625 C26.99775589 -0.10281754 27.72598053 -0.10797882 28.47627258 -0.11329651 C31.59602288 -0.11364279 34.01633188 0.00544396 37 1 C37 1.66 37 2.32 37 3 C37.66 3.33 38.32 3.66 39 4 C26.13 4 13.26 4 0 4 C0 2.68 0 1.36 0 0 Z " fill="#F5F5F5" transform="translate(150,236)"/>
<path d="M0 0 C0 3.63 0 7.26 0 11 C-1.381875 11.061875 -2.76375 11.12375 -4.1875 11.1875 C-7.6491547 11.59635685 -9.00580624 12.00387083 -12 14 C-14.73552017 18.10328026 -14.7807005 21.10231116 -15 26 C-18.3 26 -21.6 26 -25 26 C-19.75308273 18.28394519 -13.19407325 12.00145686 -6.54199219 5.51367188 C-5.22246931 4.21838343 -3.92525982 2.90043083 -2.6328125 1.578125 C-1 0 -1 0 0 0 Z " fill="#F5F5F5" transform="translate(345,274)"/>
<path d="M0 0 C-0.33 1.98 -0.66 3.96 -1 6 C-13.21 6 -25.42 6 -38 6 C-33.62122246 2.71591685 -32.54479333 2.6357568 -27.3125 2.5 C-20.53841257 2.19509978 -14.10476127 1.26203526 -7.46020508 -0.07226562 C-2.19701001 -1.098505 -2.19701001 -1.098505 0 0 Z " fill="#ECECEC" transform="translate(226,346)"/>
<path d="M0 0 C0 4.95 0 9.9 0 15 C-3.63 15 -7.26 15 -11 15 C-11.36548223 7.56852792 -11.36548223 7.56852792 -9.875 5.25 C-9.25625 4.8375 -8.6375 4.425 -8 4 C-6.989375 3.278125 -5.97875 2.55625 -4.9375 1.8125 C-2 0 -2 0 0 0 Z " fill="#EDEDED" transform="translate(60,240)"/>
<path d="M0 0 C4.95 0 9.9 0 15 0 C15 2.64 15 5.28 15 8 C10.05 8 5.1 8 0 8 C0 5.36 0 2.72 0 0 Z " fill="#EEEEEE" transform="translate(165,210)"/>
<path d="M0 0 C4.95 0 9.9 0 15 0 C15 2.64 15 5.28 15 8 C10.05 8 5.1 8 0 8 C0 5.36 0 2.72 0 0 Z " fill="#EEEEEE" transform="translate(135,210)"/>
<path d="M0 0 C4.95 0 9.9 0 15 0 C15 2.64 15 5.28 15 8 C10.05 8 5.1 8 0 8 C0 5.36 0 2.72 0 0 Z " fill="#EEEEEE" transform="translate(105,210)"/>
<path d="M0 0 C4.95 0 9.9 0 15 0 C15 2.64 15 5.28 15 8 C10.05 8 5.1 8 0 8 C0 5.36 0 2.72 0 0 Z " fill="#EEEEEE" transform="translate(75,210)"/>
<path d="M0 0 C2.64 0 5.28 0 8 0 C8 4.95 8 9.9 8 15 C5.36 15 2.72 15 0 15 C0 10.05 0 5.1 0 0 Z " fill="#EEEEEE" transform="translate(75,180)"/>
<path d="M0 0 C2.64 0 5.28 0 8 0 C8 4.95 8 9.9 8 15 C5.36 15 2.72 15 0 15 C0 10.05 0 5.1 0 0 Z " fill="#EEEEEE" transform="translate(75,150)"/>
<path d="M0 0 C2.64 0 5.28 0 8 0 C8 4.95 8 9.9 8 15 C5.36 15 2.72 15 0 15 C0 10.05 0 5.1 0 0 Z " fill="#EEEEEE" transform="translate(75,120)"/>
<path d="M0 0 C4.62 0 9.24 0 14 0 C11.73793925 6.78618225 11.73793925 6.78618225 7 9.4375 C6.113125 9.95183594 5.22625 10.46617188 4.3125 10.99609375 C3.549375 11.32738281 2.78625 11.65867187 2 12 C1.34 11.67 0.68 11.34 0 11 C0 7.37 0 3.74 0 0 Z " fill="#EEEEEE" transform="translate(75,60)"/>
<path d="M0 0 C1.08667969 0.11085938 2.17335937 0.22171875 3.29296875 0.3359375 C4.12441406 0.43132812 4.95585937 0.52671875 5.8125 0.625 C5.8125 2.935 5.8125 5.245 5.8125 7.625 C0.8625 7.625 -4.0875 7.625 -9.1875 7.625 C-9.1875 5.645 -9.1875 3.665 -9.1875 1.625 C-5.54331659 -0.80445561 -4.25826636 -0.4578781 0 0 Z " fill="#FDFDFD" transform="translate(234.1875,344.375)"/>
<path d="M0 0 C3.33817527 0 5.35453913 0.36451314 7.76953125 2.7421875 C9.37228934 4.79161588 10.83541711 6.67083423 12 9 C11.67 9.99 11.34 10.98 11 12 C7.37 12 3.74 12 0 12 C0 8.04 0 4.08 0 0 Z " fill="#ECECEC" transform="translate(195,243)"/>
<path d="M0 0 C4.95 0 9.9 0 15 0 C15 2.31 15 4.62 15 7 C10.05 7 5.1 7 0 7 C0 4.69 0 2.38 0 0 Z " fill="#EEEEEE" transform="translate(330,345)"/>
<path d="M0 0 C4.95 0 9.9 0 15 0 C15 2.31 15 4.62 15 7 C10.05 7 5.1 7 0 7 C0 4.69 0 2.38 0 0 Z " fill="#FFFFFF" transform="translate(315,345)"/>
<path d="M0 0 C4.95 0 9.9 0 15 0 C15 2.31 15 4.62 15 7 C10.05 7 5.1 7 0 7 C0 4.69 0 2.38 0 0 Z " fill="#EEEEEE" transform="translate(300,345)"/>
<path d="M0 0 C4.95 0 9.9 0 15 0 C15 2.31 15 4.62 15 7 C10.05 7 5.1 7 0 7 C0 4.69 0 2.38 0 0 Z " fill="#FFFFFF" transform="translate(285,345)"/>
<path d="M0 0 C4.95 0 9.9 0 15 0 C15 2.31 15 4.62 15 7 C10.05 7 5.1 7 0 7 C0 4.69 0 2.38 0 0 Z " fill="#EEEEEE" transform="translate(270,345)"/>
<path d="M0 0 C4.95 0 9.9 0 15 0 C15 2.31 15 4.62 15 7 C10.05 7 5.1 7 0 7 C0 4.69 0 2.38 0 0 Z " fill="#FFFFFF" transform="translate(255,345)"/>
<path d="M0 0 C4.95 0 9.9 0 15 0 C15 2.31 15 4.62 15 7 C10.05 7 5.1 7 0 7 C0 4.69 0 2.38 0 0 Z " fill="#EEEEEE" transform="translate(240,345)"/>
<path d="M0 0 C9.24 0 18.48 0 28 0 C28 0.33 28 0.66 28 1 C25.69 1 23.38 1 21 1 C21 2.65 21 4.3 21 6 C16.05 6 11.1 6 6 6 C6 4.35 6 2.7 6 1 C4.02 1 2.04 1 0 1 C0 0.67 0 0.34 0 0 Z " fill="#FFFFFF" transform="translate(189,294)"/>
<path d="M0 0 C-0.33 2.64 -0.66 5.28 -1 8 C-5.95 8 -10.9 8 -16 8 C-15 4 -15 4 -11.6875 1.8125 C-7.4559122 -0.38101694 -4.68018345 -1.50434468 0 0 Z " fill="#EBEBEB" transform="translate(301,247)"/>
<path d="M0 0 C4.95 0 9.9 0 15 0 C15 1.98 15 3.96 15 6 C10.05 6.33 5.1 6.66 0 7 C0 4.69 0 2.38 0 0 Z " fill="#EEEEEE" transform="translate(90,15)"/>
<path d="M0 0 C-0.33 2.64 -0.66 5.28 -1 8 C-2.98 8 -4.96 8 -7 8 C-7 11.3 -7 14.6 -7 18 C-12.94 18 -18.88 18 -25 18 C-25 17.67 -25 17.34 -25 17 C-19.72 17 -14.44 17 -9 17 C-9 12.38 -9 7.76 -9 3 C-2.25 0 -2.25 0 0 0 Z " fill="#E3E3E3" transform="translate(196,187)"/>
<path d="M0 0 C2.97 0.33 5.94 0.66 9 1 C9 2.98 9 4.96 9 7 C4.05 7 -0.9 7 -6 7 C-6 5.35 -6 3.7 -6 2 C-4.02 1.67 -2.04 1.34 0 1 C0 0.67 0 0.34 0 0 Z " fill="#EEEEEE" transform="translate(216,293)"/>
<path d="M0 0 C0.05391993 1.79133978 0.09275571 3.58313899 0.125 5.375 C0.14820313 6.37273437 0.17140625 7.37046875 0.1953125 8.3984375 C0 11 0 11 -2 13 C-7.82524272 8.87378641 -7.82524272 8.87378641 -8.625 4.875 C-8 2 -8 2 -6.25 0.0625 C-3.57406123 -1.20113775 -2.73818408 -0.8341107 0 0 Z " fill="#EDEDED" transform="translate(180,120)"/>
<path d="M0 0 C0.4125 0.556875 0.825 1.11375 1.25 1.6875 C4.76922222 6.38786831 4.76922222 6.38786831 8.75 10.6875 C10 12 10 12 10 14 C6.37 14 2.74 14 -1 14 C-1.02694851 12.04174127 -1.04637218 10.08337774 -1.0625 8.125 C-1.07410156 7.03445312 -1.08570313 5.94390625 -1.09765625 4.8203125 C-1 2 -1 2 0 0 Z " fill="#EDEDED" transform="translate(151,136)"/>
<path d="M0 0 C2.97 0.495 2.97 0.495 6 1 C6 5.95 6 10.9 6 16 C4.35 16.33 2.7 16.66 1 17 C0.34 17.99 -0.32 18.98 -1 20 C-0.48914188 13.56318772 0.72942897 8.04057576 3 2 C2.01 1.67 1.02 1.34 0 1 C0 0.67 0 0.34 0 0 Z " fill="#F6F6F6" transform="translate(204,104)"/>
<path d="M0 0 C0.99 0.33 1.98 0.66 3 1 C5.05893621 1.22325814 7.12233653 1.40705759 9.1875 1.5625 C10.27417969 1.64628906 11.36085937 1.73007812 12.48046875 1.81640625 C13.72763672 1.90728516 13.72763672 1.90728516 15 2 C15 3.65 15 5.3 15 7 C10.05 7 5.1 7 0 7 C0 4.69 0 2.38 0 0 Z " fill="#EEEEEE" transform="translate(120,293)"/>
<path d="M0 0 C0.33 0 0.66 0 1 0 C1 5.61 1 11.22 1 17 C-4.61 17 -10.22 17 -16 17 C-16 15.35 -16 13.7 -16 12 C-11.05 12 -6.1 12 -1 12 C-0.67 13.32 -0.34 14.64 0 16 C0 10.72 0 5.44 0 0 Z " fill="#C7C7C7" transform="translate(31,228)"/>
<path d="M0 0 C4.7707929 0.43370845 8.63364259 2.64334391 12 6 C12 6.99 12 7.98 12 9 C8.04 9 4.08 9 0 9 C0 6.03 0 3.06 0 0 Z " fill="#ECECEC" transform="translate(210,51)"/>
<path d="M0 0 C4.95 0 9.9 0 15 0 C15 1.65 15 3.3 15 5 C10.05 5 5.1 5 0 5 C0 3.35 0 1.7 0 0 Z " fill="#EEEEEE" transform="translate(180,295)"/>
<path d="M0 0 C4.95 0 9.9 0 15 0 C15 1.65 15 3.3 15 5 C10.05 5 5.1 5 0 5 C0 3.35 0 1.7 0 0 Z " fill="#EEEEEE" transform="translate(150,295)"/>
<path d="M0 0 C4.95 0 9.9 0 15 0 C15 1.65 15 3.3 15 5 C10.05 5 5.1 5 0 5 C0 3.35 0 1.7 0 0 Z " fill="#EEEEEE" transform="translate(165,270)"/>
<path d="M0 0 C4.95 0 9.9 0 15 0 C15 1.65 15 3.3 15 5 C10.05 5 5.1 5 0 5 C0 3.35 0 1.7 0 0 Z " fill="#EEEEEE" transform="translate(135,270)"/>
<path d="M0 0 C1.65 0 3.3 0 5 0 C5 4.95 5 9.9 5 15 C3.35 15 1.7 15 0 15 C0 10.05 0 5.1 0 0 Z " fill="#EEEEEE" transform="translate(280,195)"/>
<path d="M0 0 C1.65 0 3.3 0 5 0 C5 4.95 5 9.9 5 15 C3.35 15 1.7 15 0 15 C0 10.05 0 5.1 0 0 Z " fill="#EEEEEE" transform="translate(280,165)"/>
<path d="M0 0 C1.65 0 3.3 0 5 0 C5 4.95 5 9.9 5 15 C3.35 15 1.7 15 0 15 C0 10.05 0 5.1 0 0 Z " fill="#EEEEEE" transform="translate(280,135)"/>
<path d="M0 0 C1.65 0 3.3 0 5 0 C5 4.95 5 9.9 5 15 C3.35 15 1.7 15 0 15 C0 10.05 0 5.1 0 0 Z " fill="#EEEEEE" transform="translate(280,105)"/>
<path d="M0 0 C1.41750563 0.11509661 2.83401169 0.24253658 4.25 0.375 C5.03890625 0.44460938 5.8278125 0.51421875 6.640625 0.5859375 C9.10495687 1.01841958 10.8278074 1.78394346 13 3 C13.66 3.33 14.32 3.66 15 4 C15 4.66 15 5.32 15 6 C10.05 6 5.1 6 0 6 C0 4.02 0 2.04 0 0 Z " fill="#EEEEEE" transform="translate(60,346)"/>
<path d="M0 0 C2.97 0 5.94 0 9 0 C7.62408154 4.0130955 5.72281449 6.7666578 3 10 C2.34 10.99 1.68 11.98 1 13 C-0.32229189 10.35541621 -0.09677194 8.32238699 -0.0625 5.375 C-0.05347656 4.37210937 -0.04445312 3.36921875 -0.03515625 2.3359375 C-0.02355469 1.56507812 -0.01195312 0.79421875 0 0 Z " fill="#EEEEEE" transform="translate(150,105)"/>
<path d="M0 0 C1.39456452 0.00667256 2.78911118 0.01863093 4.18359375 0.03515625 C4.89451172 0.03966797 5.60542969 0.04417969 6.33789062 0.04882812 C8.09899388 0.06064761 9.86005411 0.07858362 11.62109375 0.09765625 C11.95109375 0.75765625 12.28109375 1.41765625 12.62109375 2.09765625 C12.29109375 2.75765625 11.96109375 3.41765625 11.62109375 4.09765625 C6.67109375 4.09765625 1.72109375 4.09765625 -3.37890625 4.09765625 C-3.70890625 3.10765625 -4.03890625 2.11765625 -4.37890625 1.09765625 C-3.37890625 0.09765625 -3.37890625 0.09765625 0 0 Z " fill="#FEFEFE" transform="translate(138.37890625,235.90234375)"/>
<path d="M0 0 C3.63 0 7.26 0 11 0 C11 2.31 11 4.62 11 7 C8 8 8 8 5.95703125 7.109375 C5.24933594 6.66078125 4.54164063 6.2121875 3.8125 5.75 C3.09707031 5.31171875 2.38164062 4.8734375 1.64453125 4.421875 C1.10183594 3.95265625 0.55914062 3.4834375 0 3 C0 2.01 0 1.02 0 0 Z " fill="#ECECEC" transform="translate(229,30)"/>
<path d="M0 0 C3.96 0 7.92 0 12 0 C11.67 1.65 11.34 3.3 11 5 C7.18243176 6.37432457 3.92744671 5.67975039 0 5 C0 3.35 0 1.7 0 0 Z " fill="#ECECEC" transform="translate(195,270)"/>
<path d="M0 0 C3.3 0 6.6 0 10 0 C11 6.625 11 6.625 11 10 C9.16106176 8.71632558 7.32897375 7.42283239 5.5 6.125 C4.4790625 5.40570312 3.458125 4.68640625 2.40625 3.9453125 C1.6121875 3.30335937 0.818125 2.66140625 0 2 C0 1.34 0 0.68 0 0 Z " fill="#F9F9F9" transform="translate(185,0)"/>
<path d="M0 0 C1.65 0 3.3 0 5 0 C5 3.63 5 7.26 5 11 C3.35 11.33 1.7 11.66 0 12 C0 8.04 0 4.08 0 0 Z " fill="#EEEEEE" transform="translate(165,90)"/>
<path d="M0 0 C0.33 0 0.66 0 1 0 C1 6.6 1 13.2 1 20 C0.01 20 -0.98 20 -2 20 C-3.70159453 6.3667426 -3.70159453 6.3667426 0 0 Z " fill="#EAEAEA" transform="translate(347,265)"/>
<path d="M0 0 C0 1.98 0 3.96 0 6 C-3.3 6 -6.6 6 -10 6 C-10 5.01 -10 4.02 -10 3 C-6.27034861 0.96564469 -4.33094958 0 0 0 Z " fill="#EDEDED" transform="translate(285,324)"/>
<path d="M0 0 C0.99 0 1.98 0 3 0 C3 4.95 3 9.9 3 15 C2.01 15 1.02 15 0 15 C0 10.05 0 5.1 0 0 Z " fill="#FFFFFF" transform="translate(345,315)"/>
<path d="M0 0 C0.99 0 1.98 0 3 0 C3 4.95 3 9.9 3 15 C2.01 15 1.02 15 0 15 C0 10.05 0 5.1 0 0 Z " fill="#FFFFFF" transform="translate(345,285)"/>
<path d="M0 0 C0.99 0 1.98 0 3 0 C3 4.95 3 9.9 3 15 C2.01 15 1.02 15 0 15 C0 10.05 0 5.1 0 0 Z " fill="#FFFFFF" transform="translate(345,225)"/>
<path d="M0 0 C4.95 0 9.9 0 15 0 C15 1.32 15 2.64 15 4 C10.05 3.67 5.1 3.34 0 3 C0 2.01 0 1.02 0 0 Z " fill="#EEEEEE" transform="translate(300,225)"/>
<path d="M0 0 C0.99 0 1.98 0 3 0 C3 4.95 3 9.9 3 15 C2.01 15 1.02 15 0 15 C0 10.05 0 5.1 0 0 Z " fill="#EEEEEE" transform="translate(345,210)"/>
<path d="M0 0 C0.99 0 1.98 0 3 0 C3 4.95 3 9.9 3 15 C2.01 15 1.02 15 0 15 C0 10.05 0 5.1 0 0 Z " fill="#FFFFFF" transform="translate(345,195)"/>
<path d="M0 0 C0.99 0 1.98 0 3 0 C3 4.95 3 9.9 3 15 C2.01 15 1.02 15 0 15 C0 10.05 0 5.1 0 0 Z " fill="#EEEEEE" transform="translate(345,180)"/>
<path d="M0 0 C0.99 0 1.98 0 3 0 C3 4.95 3 9.9 3 15 C2.01 15 1.02 15 0 15 C0 10.05 0 5.1 0 0 Z " fill="#FFFFFF" transform="translate(345,165)"/>
<path d="M0 0 C0.99 0 1.98 0 3 0 C3 4.95 3 9.9 3 15 C2.01 15 1.02 15 0 15 C0 10.05 0 5.1 0 0 Z " fill="#EEEEEE" transform="translate(345,150)"/>
<path d="M0 0 C0.99 0 1.98 0 3 0 C3 4.95 3 9.9 3 15 C2.01 15 1.02 15 0 15 C0 10.05 0 5.1 0 0 Z " fill="#FFFFFF" transform="translate(345,135)"/>
<path d="M0 0 C0.99 0 1.98 0 3 0 C3 4.95 3 9.9 3 15 C2.01 15 1.02 15 0 15 C0 10.05 0 5.1 0 0 Z " fill="#EEEEEE" transform="translate(345,120)"/>
<path d="M0 0 C0.99 0 1.98 0 3 0 C3 4.95 3 9.9 3 15 C2.01 15 1.02 15 0 15 C0 10.05 0 5.1 0 0 Z " fill="#FFFFFF" transform="translate(345,105)"/>
<path d="M0 0 C0.99 0 1.98 0 3 0 C3 4.95 3 9.9 3 15 C2.01 15 1.02 15 0 15 C0 10.05 0 5.1 0 0 Z " fill="#EEEEEE" transform="translate(345,90)"/>
<path d="M0 0 C0.99 0 1.98 0 3 0 C3 4.95 3 9.9 3 15 C2.01 15 1.02 15 0 15 C0 10.05 0 5.1 0 0 Z " fill="#FFFFFF" transform="translate(345,75)"/>
<path d="M0 0 C0.99 0 1.98 0 3 0 C3 4.95 3 9.9 3 15 C2.01 15 1.02 15 0 15 C0 10.05 0 5.1 0 0 Z " fill="#EEEEEE" transform="translate(345,60)"/>
<path d="M0 0 C0.66 0.33 1.32 0.66 2 1 C1.67 3.31 1.34 5.62 1 8 C-1.97 8 -4.94 8 -8 8 C-5.94872955 4.0054207 -4.11087838 1.89732848 0 0 Z " fill="#FCFCFC" transform="translate(149,52)"/>
<path d="M0 0 C0.99 0 1.98 0 3 0 C3 4.95 3 9.9 3 15 C2.01 15 1.02 15 0 15 C0 10.05 0 5.1 0 0 Z " fill="#EEEEEE" transform="translate(345,30)"/>
<path d="M0 0 C0.99 0 1.98 0 3 0 C3 4.95 3 9.9 3 15 C2.01 15 1.02 15 0 15 C0 10.05 0 5.1 0 0 Z " fill="#EEEEEE" transform="translate(345,0)"/>
<path d="M0 0 C3.63 0 7.26 0 11 0 C10.67 0.99 10.34 1.98 10 3 C7.49609375 3.94921875 7.49609375 3.94921875 4.4375 4.6875 C3.42558594 4.93886719 2.41367188 5.19023437 1.37109375 5.44921875 C0.58863281 5.63097656 -0.19382813 5.81273437 -1 6 C-0.67 4.02 -0.34 2.04 0 0 Z " fill="#DFDFDF" transform="translate(225,270)"/>
<path d="M0 0 C2.97 0 5.94 0 9 0 C6.58443874 3.19199167 4.31996462 5.74716687 1 8 C0 7 0 7 -0.0625 3.4375 C-0.041875 2.303125 -0.02125 1.16875 0 0 Z " fill="#EEEEEE" transform="translate(60,75)"/>
<path d="M0 0 C2.31 0 4.62 0 7 0 C5.375 5.75 5.375 5.75 2 8 C1.34 7.67 0.68 7.34 0 7 C0 4.69 0 2.38 0 0 Z " fill="#EAEAEA" transform="translate(315,270)"/>
<path d="M0 0 C0.66 0.33 1.32 0.66 2 1 C2 2.98 2 4.96 2 7 C-0.64 7 -3.28 7 -6 7 C-6 6.01 -6 5.02 -6 4 C-3 1.8125 -3 1.8125 0 0 Z " fill="#EBEBEB" transform="translate(81,98)"/>
<path d="M0 0 C0.99 0 1.98 0 3 0 C3 5.61 3 11.22 3 17 C-0.57231298 11.64153053 -0.12223971 6.234225 0 0 Z " fill="#EEEEEE" transform="translate(345,240)"/>
<path d="M0 0 C2.97 0 5.94 0 9 0 C9 1.65 9 3.3 9 5 C6 6 6 6 2.8125 4.5625 C1.884375 4.046875 0.95625 3.53125 0 3 C0 2.01 0 1.02 0 0 Z " fill="#EBEBEB" transform="translate(156,165)"/>
<path d="M0 0 C3.0831351 1.19899698 6.06279492 2.47700477 9 4 C9 4.99 9 5.98 9 7 C6.36 7 3.72 7 1 7 C0.67 4.69 0.34 2.38 0 0 Z " fill="#EDEDED" transform="translate(48,338)"/>
<path d="M0 0 C5.75 1.625 5.75 1.625 8 5 C7 6 7 6 5.15234375 6.09765625 C3.1015625 6.06510417 1.05078125 6.03255208 -1 6 C-1.042721 4.33388095 -1.04063832 2.66617115 -1 1 C-0.67 0.67 -0.34 0.34 0 0 Z " fill="#EDEDED" transform="translate(316,249)"/>
<path d="M0 0 C-0.33 1.32 -0.66 2.64 -1 4 C-4.63 4 -8.26 4 -12 4 C-11.67 3.01 -11.34 2.02 -11 1 C-7.50970582 -0.47666292 -3.72563614 -0.07164685 0 0 Z " fill="#ECECEC" transform="translate(76,236)"/>
<path d="M0 0 C0.99 0 1.98 0 3 0 C3 2.64 3 5.28 3 8 C1.02 8 -0.96 8 -3 8 C-2.45276317 4.62537285 -1.9451 2.91765 0 0 Z " fill="#EBEBEB" transform="translate(297,97)"/>
<path d="M0 0 C0.33 0 0.66 0 1 0 C1 2.31 1 4.62 1 7 C0.29875 7.226875 -0.4025 7.45375 -1.125 7.6875 C-4.69343613 9.31656867 -7.06514511 11.40640731 -10 14 C-10 13.01 -10 12.02 -10 11 C-8.33333333 9.66666667 -6.66666667 8.33333333 -5 7 C-4.04815451 5.77657532 -3.13165804 4.52493407 -2.25 3.25 C-1.5075 2.1775 -0.765 1.105 0 0 Z " fill="#F7F7F7" transform="translate(209,173)"/>
<path d="M0 0 C2.31 0.33 4.62 0.66 7 1 C7.2475 1.7425 7.495 2.485 7.75 3.25 C9.09147301 6.20124062 10.60905526 7.84814974 13 10 C12.67 10.66 12.34 11.32 12 12 C11.38511719 11.44570312 10.77023438 10.89140625 10.13671875 10.3203125 C9.32847656 9.59585938 8.52023438 8.87140625 7.6875 8.125 C6.48673828 7.04605469 6.48673828 7.04605469 5.26171875 5.9453125 C2.95810917 3.88394498 2.95810917 3.88394498 0 2 C0 1.34 0 0.68 0 0 Z " fill="#F5F5F5" transform="translate(203,224)"/>
<path d="M0 0 C1.98 0 3.96 0 6 0 C5.42415568 2.38564077 4.77772405 4.66682784 4 7 C1.9375 7.6875 1.9375 7.6875 0 8 C0 5.36 0 2.72 0 0 Z " fill="#E8E8E8" transform="translate(180,165)"/>
<path d="M0 0 C2.64 0.33 5.28 0.66 8 1 C8.268125 1.78375 8.53625 2.5675 8.8125 3.375 C9.84814432 6.28114923 9.84814432 6.28114923 13 8 C12.67 8.66 12.34 9.32 12 10 C9.99426318 8.71656721 7.99563881 7.4239631 6 6.125 C5.42765625 5.76019531 4.8553125 5.39539063 4.265625 5.01953125 C2.80818084 4.06525233 1.39962775 3.03722413 0 2 C0 1.34 0 0.68 0 0 Z " fill="#F6F6F6" transform="translate(292,74)"/>
<path d="M0 0 C0.99 0 1.98 0 3 0 C3 2.31 3 4.62 3 7 C2.01 7 1.02 7 0 7 C0 4.69 0 2.38 0 0 Z " fill="#FFFFFF" transform="translate(345,345)"/>
<path d="M0 0 C2.97 0.495 2.97 0.495 6 1 C6 1.99 6 2.98 6 4 C4.02 4 2.04 4 0 4 C0 2.68 0 1.36 0 0 Z " fill="#EEEEEE" transform="translate(195,41)"/>
<path d="M0 0 C2.31 0 4.62 0 7 0 C4.63707344 2.52588702 3.33537489 3.88820837 0 5 C0 3.35 0 1.7 0 0 Z " fill="#EEEEEE" transform="translate(150,15)"/>
<path d="M0 0 C-1.26418246 0.69965443 -2.53665402 1.38434763 -3.8125 2.0625 C-4.52019531 2.44535156 -5.22789062 2.82820313 -5.95703125 3.22265625 C-8 4 -8 4 -11 3 C-9.68 2.67 -8.36 2.34 -7 2 C-7 1.34 -7 0.68 -7 0 C-2.25 -1.125 -2.25 -1.125 0 0 Z " fill="#F6F6F6" transform="translate(262,315)"/>
<path d="M0 0 C1.98 0 3.96 0 6 0 C4.3545622 1.68762851 2.68711423 3.3540349 1 5 C0.67 5 0.34 5 0 5 C0 3.35 0 1.7 0 0 Z " fill="#EEEEEE" transform="translate(300,285)"/>
<path d="M0 0 C0.66 0.33 1.32 0.66 2 1 C-0.25 3.5 -0.25 3.5 -3 6 C-4.32 6 -5.64 6 -7 6 C-7 5.34 -7 4.68 -7 4 C-1.7265625 0.77734375 -1.7265625 0.77734375 0 0 Z " fill="#F4F4F4" transform="translate(258,279)"/>
<path d="M0 0 C2.97 0 5.94 0 9 0 C5.81237635 2.12508244 3.73487777 2.5020163 0 3 C0 2.01 0 1.02 0 0 Z " fill="#EEEEEE" transform="translate(227,270)"/>
<path d="M0 0 C0 0.66 0 1.32 0 2 C0.66 2.33 1.32 2.66 2 3 C-0.97 3 -3.94 3 -7 3 C-7 2.34 -7 1.68 -7 1 C-2.25 0 -2.25 0 0 0 Z " fill="#EEEEEE" transform="translate(187,237)"/>
<path d="M0 0 C0.66 0.33 1.32 0.66 2 1 C0.35 2.98 -1.3 4.96 -3 7 C-3.66 6.34 -4.32 5.68 -5 5 C-3.35 3.35 -1.7 1.7 0 0 Z " fill="#F7F7F7" transform="translate(284,253)"/>
</svg>
