<?xml version="1.0" standalone="no"?>
<!DOCTYPE svg PUBLIC "-//W3C//DTD SVG 20010904//EN"
 "http://www.w3.org/TR/2001/REC-SVG-20010904/DTD/svg10.dtd">
<svg version="1.0" xmlns="http://www.w3.org/2000/svg"
 width="1024.000000pt" height="1024.000000pt" viewBox="0 0 1024.000000 1024.000000"
 preserveAspectRatio="xMidYMid meet">

<g transform="translate(0.000000,1024.000000) scale(0.100000,-0.100000)"
fill="#000000" stroke="none">
<path d="M4860 9934 c-140 -130 -274 -251 -297 -270 l-41 -35 -349 181 c-191
100 -351 182 -355 183 -3 1 -101 -146 -218 -328 -116 -181 -214 -333 -218
-337 -4 -3 -180 32 -392 78 -211 46 -387 84 -390 84 -4 0 -60 -169 -125 -376
-97 -307 -123 -378 -140 -384 -11 -5 -191 -16 -400 -25 -209 -9 -381 -17 -382
-18 -1 -1 -9 -169 -18 -372 -9 -204 -18 -383 -21 -400 l-4 -30 -380 -119
c-209 -66 -380 -123 -380 -126 0 -3 38 -179 84 -391 46 -211 81 -387 78 -391
-4 -4 -155 -102 -337 -218 -181 -116 -329 -216 -328 -220 2 -5 84 -165 183
-356 177 -339 180 -347 163 -368 -10 -11 -132 -145 -271 -298 l-253 -278 253
-278 c139 -153 261 -287 271 -299 19 -22 15 -31 -288 -609 l-64 -121 340 -218
c259 -165 338 -221 335 -234 -13 -40 -167 -763 -164 -766 2 -1 170 -55 373
-120 204 -64 375 -122 380 -130 6 -7 18 -180 28 -401 10 -214 19 -390 21 -391
1 -1 177 -10 390 -20 228 -10 393 -21 401 -28 7 -5 66 -176 130 -380 64 -203
119 -372 120 -373 3 -4 723 151 766 164 13 3 69 -76 235 -335 l217 -340 121
64 c583 305 587 307 610 287 11 -10 146 -132 298 -271 l278 -252 278 253 c153
139 287 261 298 271 20 17 30 13 368 -163 192 -99 352 -182 356 -183 5 -1 104
147 220 328 116 182 215 333 218 337 4 3 178 -31 387 -77 209 -47 385 -84 391
-85 6 0 64 169 129 376 97 307 123 378 140 384 11 5 191 16 400 25 208 9 380
17 382 18 1 2 10 177 20 391 10 226 22 393 28 401 5 7 177 66 380 130 204 65
371 119 373 120 3 3 -151 726 -164 766 -3 13 76 68 335 235 l340 217 -59 111
c-32 61 -115 221 -185 355 -124 239 -126 244 -108 264 10 12 132 146 271 299
l253 278 -258 282 c-142 156 -264 291 -271 300 -13 16 23 90 298 613 l59 111
-327 209 c-180 114 -332 213 -339 219 -9 8 9 102 72 391 47 209 84 385 85 390
0 6 -171 64 -380 130 l-380 120 -4 30 c-3 17 -12 196 -21 400 -9 203 -17 371
-18 372 -1 1 -173 9 -382 18 -209 9 -389 20 -400 25 -17 6 -43 77 -140 384
-65 207 -121 376 -125 376 -3 0 -179 -38 -390 -84 -212 -46 -388 -81 -392 -78
-4 4 -102 156 -218 337 -117 182 -215 329 -218 328 -4 -1 -164 -83 -356 -183
-298 -154 -350 -179 -364 -168 -9 7 -144 129 -299 271 -155 141 -284 257 -285
256 -2 0 -118 -106 -258 -235z m-937 -2355 c482 -98 857 -486 942 -976 19
-109 19 -306 0 -414 -76 -439 -390 -804 -810 -943 -236 -79 -521 -75 -757 10
-389 140 -673 467 -771 889 -28 123 -30 362 -3 485 66 306 228 561 471 742
135 101 341 189 510 217 101 17 311 12 418 -10z m2778 -211 c-70 -128 -665
-1216 -1321 -2418 -657 -1202 -1199 -2188 -1205 -2192 -15 -11 -715 -10 -715
1 0 5 590 1088 1310 2406 721 1319 1315 2406 1321 2416 9 18 29 19 374 19
l364 0 -128 -232z m72 -2243 c424 -75 773 -372 921 -783 91 -253 91 -561 0
-814 -149 -414 -499 -709 -929 -785 -132 -23 -347 -13 -478 21 -441 115 -769
456 -875 911 -36 158 -36 362 0 521 111 474 464 825 930 923 113 24 317 27
431 6z"/>
<path d="M3535 7123 c-254 -54 -466 -253 -547 -513 -19 -63 -23 -97 -23 -215
0 -118 4 -152 23 -215 95 -304 351 -508 662 -527 354 -22 672 215 757 565 21
89 21 265 0 354 -95 391 -481 635 -872 551z"/>
<path d="M6448 4670 c-98 -17 -234 -75 -308 -132 -97 -74 -192 -194 -239 -302
-92 -210 -77 -480 39 -677 101 -171 239 -281 430 -341 64 -20 95 -23 210 -22
116 0 146 4 212 26 122 41 204 91 299 188 71 71 94 103 133 181 64 131 80 199
80 344 0 144 -16 213 -79 341 -140 285 -460 447 -777 394z"/>
</g>
</svg>
